<svg id="Layer_1" data-name="Layer 1" xmlns="http://www.w3.org/2000/svg" viewBox="0 0 694.2 74.45"><defs><style>.cls-1{fill:#fff;}.cls-2{fill:#001b50;}.cls-3{fill:#2e9ac0;}</style></defs><title>beredskapsportalen</title><rect class="cls-1" y="1.72" width="694.2" height="61.97"/><path class="cls-2" d="M3.72,55.38V12.75H25.36q6.75,0,9.84,3.4a11.26,11.26,0,0,1,3.09,7.78,9.79,9.79,0,0,1-1.8,5.76,9.17,9.17,0,0,1-5.35,3.55q8.27,2,8.27,9.93a13.39,13.39,0,0,1-2.92,8.48Q33.58,55.39,24,55.38Zm12-26.3h6.06a3.94,3.94,0,0,0,3.22-1.15A3.86,3.86,0,0,0,26,25.46c0-2.37-1.45-3.56-4.37-3.56H15.77Zm0,16.81h6.37a4.58,4.58,0,0,0,3.48-1.17,3.76,3.76,0,0,0,1.11-2.64,4.09,4.09,0,0,0-1.07-2.71c-.72-.82-2-1.23-3.95-1.23H15.77Z"/><path class="cls-2" d="M76.89,45.2V55.38H44.82V12.75H76.89v9.84H57.65v6.18H73.2v9.46H57.65v7Z"/><path class="cls-2" d="M120,55.38H105.51l-6.22-16.3H95.16v16.3H82.07V12.75h22.27q7.36,0,11.45,3.45a11.37,11.37,0,0,1,4.07,9.11,13.71,13.71,0,0,1-1.5,6.51q-1.5,2.82-6.06,5ZM95.16,30h5.59a6.88,6.88,0,0,0,4-1,3.46,3.46,0,0,0,1.49-3q0-4.09-5-4.09h-6Z"/><path class="cls-2" d="M158.28,45.2V55.38H126.2V12.75h32.08v9.84H139v6.18h15.55v9.46H139v7Z"/><path class="cls-2" d="M163.46,55.38V12.75H180q10.74,0,16.08,6.37a22.27,22.27,0,0,1,5.34,14.74q0,9.55-5.73,15.54t-14.88,6Zm13.08-9.81H180a6.57,6.57,0,0,0,5.48-3.15c1.49-2.1,2.23-5,2.23-8.59a15.54,15.54,0,0,0-2-8A6.29,6.29,0,0,0,180,22.43h-3.41Z"/><path class="cls-2" d="M202.5,43l12.15-2.18Q216.18,46,222.52,46q4.93,0,4.93-2.62a2.43,2.43,0,0,0-1.14-2.14,12.37,12.37,0,0,0-4.08-1.36Q211,37.75,207.84,34.27a11.62,11.62,0,0,1-3.19-8.15,12.78,12.78,0,0,1,4.58-10q4.58-4,13.16-4,13,0,17.21,10.47l-10.84,3.28c-1.12-2.86-3.4-4.28-6.84-4.28q-4.28,0-4.27,2.65a2.12,2.12,0,0,0,1,1.85,12,12,0,0,0,3.75,1.24,79,79,0,0,1,10.87,2.87,11.67,11.67,0,0,1,5.37,4.26,11.89,11.89,0,0,1,2.16,7.11A12.59,12.59,0,0,1,235.51,52q-5.25,4-13.77,4Q206.15,56,202.5,43Z"/><path class="cls-2" d="M284.2,55.38H269.88l-7.37-16.11-4.42,6.27v9.84H245.75V12.75h12.34V30.38l11.75-17.63H281.6l-10.76,15.6Z"/><path class="cls-2" d="M311.2,55.38,308.79,47H297.37l-2.56,8.4H284.19l13.16-42.63h13.83l13.37,42.63ZM299.6,37.67h6.89L303,25.31Z"/><path class="cls-2" d="M341.75,39.89V55.38H328.48V12.75h18.21q6.81,0,10.35,1.56a12.6,12.6,0,0,1,5.62,4.78,13,13,0,0,1,2.08,7.21,12.5,12.5,0,0,1-4.25,9.84q-4.25,3.75-11.33,3.75Zm-.18-9.15h4.37q5.78,0,5.78-4.25c0-2.66-1.78-4-5.34-4h-4.81Z"/><path class="cls-2" d="M365.21,43l12.15-2.18Q378.89,46,385.23,46q4.93,0,4.93-2.62A2.43,2.43,0,0,0,389,41.25,12.38,12.38,0,0,0,385,39.89q-11.22-2.14-14.4-5.62a11.66,11.66,0,0,1-3.19-8.15,12.78,12.78,0,0,1,4.58-10q4.57-4,13.16-4,13,0,17.21,10.47l-10.84,3.28c-1.12-2.86-3.4-4.28-6.84-4.28q-4.28,0-4.27,2.65a2.12,2.12,0,0,0,1,1.85,12,12,0,0,0,3.75,1.24,79,79,0,0,1,10.87,2.87,11.67,11.67,0,0,1,5.37,4.26,11.89,11.89,0,0,1,2.16,7.11A12.59,12.59,0,0,1,398.22,52q-5.25,4-13.77,4Q368.87,56,365.21,43Z"/><path class="cls-3" d="M415.43,55.38h-5.34V12.75H425.2q7.1,0,10.46,3.86A13,13,0,0,1,439,25.4a12.22,12.22,0,0,1-3.67,9.09,13.17,13.17,0,0,1-9.6,3.59H415.43Zm0-21.74h9.8a8.32,8.32,0,0,0,6.09-2.26,8,8,0,0,0,2.32-6,8.65,8.65,0,0,0-2.07-5.68,7.27,7.27,0,0,0-6-2.5H415.43Z"/><path class="cls-3" d="M460.56,56.25a14.88,14.88,0,0,1-12.81-6.39q-4.59-6.39-4.59-15.67,0-9.69,4.81-16a16,16,0,0,1,25.42-.11q4.78,6.21,4.78,15.64a27.19,27.19,0,0,1-4.64,15.8A14.86,14.86,0,0,1,460.56,56.25Zm.12-4.34a9.77,9.77,0,0,0,8.74-5.09q3.16-5.1,3.16-13.13,0-8.25-3.26-12.85a10.15,10.15,0,0,0-8.67-4.59,9.89,9.89,0,0,0-8.68,5q-3.23,5-3.22,13,0,7.85,3.25,12.77A10,10,0,0,0,460.68,51.91Z"/><path class="cls-3" d="M516.86,55.38h-5.59l-7.86-18.46H491.19V55.38h-5V12.75H503q6.84,0,10.13,3.73a12.08,12.08,0,0,1,3.3,8.17,12.66,12.66,0,0,1-1.85,6.53,10.29,10.29,0,0,1-6.09,4.46Zm-25.67-22.8h11.15q4.41,0,6.58-2.32a8.11,8.11,0,0,0,2.17-5.7,6.4,6.4,0,0,0-2.3-5.25A8.85,8.85,0,0,0,503,17.44H491.19Z"/><path class="cls-3" d="M538.26,55.38h-5.34V17.44H520.71V12.75H550.5v4.69H538.26Z"/><path class="cls-3" d="M585.14,55.38h-5.45L575.4,42.92H559.58l-3.81,12.46H551.3l13.86-42.63h6ZM574.26,38.92l-6.6-20.49-6.59,20.49Z"/><path class="cls-3" d="M615.86,50.7v4.68H590.69V12.75h5.47v38Z"/><path class="cls-3" d="M649.59,50.7v4.68H622V12.75h27v4.69H627.36V31h17.17v4.34H627.36V50.7Z"/><path class="cls-3" d="M688.44,55.38h-5.18l-22-37.16.06,2.81c.07,1.06.1,1.95.1,2.68V55.38h-4.31V12.75h6.68l20.61,34.74-.06-3q-.06-1.76-.06-3.09V12.75h4.21Z"/></svg>