<?xml version="1.0" encoding="utf-8"?>
<!-- Generator: Adobe Illustrator 22.1.0, SVG Export Plug-In . SVG Version: 6.00 Build 0)  -->
<svg version="1.1" id="Layer_1" xmlns="http://www.w3.org/2000/svg" xmlns:xlink="http://www.w3.org/1999/xlink" x="0px" y="0px"
	 viewBox="0 0 512 512" style="enable-background:new 0 0 512 512;" xml:space="preserve">
<style type="text/css">
	.st0{fill:#FF6464;}
	.st1{fill:#D2555A;}
	.st2{fill:#FFFFFF;}
</style>
<path class="st0" d="M256,512C114.8,512,0,397.2,0,256S114.8,0,256,0s256,114.8,256,256S397.2,512,256,512z"/>
<path class="st1" d="M375.5,426.7c-141.2,0-256-114.8-256-256c0-59.1,20.3-113.4,54.1-156.8C72.8,48.3,0,143.7,0,256
	c0,141.2,114.8,256,256,256c82.1,0,155-39,201.9-99.2C432,421.6,404.3,426.7,375.5,426.7z"/>
<path class="st2" d="M402.9,376.7l-121-121l120.5-120.5c7.2-7.2,7.2-18.9,0-26.1v0c-7.2-7.2-18.9-7.2-26.1,0L255.8,229.6
	L135.7,109.6c-7.2-7.2-18.9-7.2-26.1,0l0,0c-7.2,7.2-7.2,18.9,0,26.1l120.1,120.1L109.1,376.3c-7.2,7.2-7.2,18.9,0,26.1h0
	c7.2,7.2,18.9,7.2,26.1,0l120.5-120.5l121,121c7.2,7.2,18.9,7.2,26.1,0l0,0C410.1,395.7,410.1,384,402.9,376.7z"/>
</svg>
