<svg id="Layer_1" data-name="Layer 1" xmlns="http://www.w3.org/2000/svg" xmlns:xlink="http://www.w3.org/1999/xlink" viewBox="0 0 259.22 74.45"><defs><style>.cls-1{fill:none;}.cls-2{clip-path:url(#clip-path);}.cls-3{fill:#001b50;}.cls-4{fill:#2e9ac0;}</style><clipPath id="clip-path"><rect class="cls-1" width="259.22" height="74.45"/></clipPath></defs><title>safetec</title><g class="cls-2"><path class="cls-3" d="M1.36,45.87l12.15-2.19q1.53,5.16,7.87,5.16,4.94,0,4.93-2.63a2.44,2.44,0,0,0-1.14-2.14,12.18,12.18,0,0,0-4.08-1.35Q9.88,40.56,6.7,37.1A11.63,11.63,0,0,1,3.51,29a12.76,12.76,0,0,1,4.58-10q4.58-4,13.16-4,13,0,17.21,10.46L27.62,28.66q-1.68-4.28-6.84-4.28-4.28,0-4.28,2.66a2.11,2.11,0,0,0,1,1.84,12,12,0,0,0,3.75,1.25A79.73,79.73,0,0,1,32.09,33a11.72,11.72,0,0,1,5.37,4.26,11.88,11.88,0,0,1,2.15,7.11,12.6,12.6,0,0,1-5.24,10.49q-5.25,4-13.78,4Q5,58.86,1.36,45.87Z"/><path class="cls-3" d="M68.12,58.21,65.71,49.8H54.29l-2.56,8.41H41.11L54.27,15.58H68.1L81.47,58.21ZM56.51,40.5h6.9L60,28.13Z"/><path class="cls-3" d="M112,42.25H98.14v16H85.4V15.58h30.82V25.73H98.14v6.93H112Z"/><path class="cls-3" d="M152.45,48V58.21H120.38V15.58h32.07v9.83H133.21V31.6h15.55v9.46H133.21v7Z"/><path class="cls-4" d="M172.16,58.21h-5.34V20.26H154.61V15.58H184.4v4.68H172.16Z"/><path class="cls-4" d="M217.91,53.52v4.69H190.33V15.58h27v4.68H195.67V33.81h17.18v4.35H195.67V53.52Z"/><path class="cls-4" d="M250.92,43.87,255.79,45Q252.3,59.08,240,59.08a14.73,14.73,0,0,1-12.7-6.53q-4.6-6.54-4.6-16.07,0-9.84,4.81-15.81a15.69,15.69,0,0,1,12.9-6q12,0,15.39,13.71l-5,1Q248,19.23,240.36,19.23A9.92,9.92,0,0,0,231.6,24q-3.1,4.74-3.1,13.29,0,7.84,3.18,12.57a9.76,9.76,0,0,0,8.43,4.73Q248.27,54.55,250.92,43.87Z"/></g></svg>