<svg id="Layer_1" data-name="Layer 1" xmlns="http://www.w3.org/2000/svg" viewBox="0 0 281.25 69"><defs><style>.cls-1{fill:#032b48;}.cls-2{fill:#032b46;}.cls-3{fill:#022b48;}.cls-4{fill:#022b47;}.cls-5{fill:#1da3b3;}.cls-6{fill:#1ba6ba;}.cls-7{fill:#1fa3b6;}.cls-8{fill:#3c9ba4;}.cls-9{fill:#eff8f9;}</style></defs><title>safetek_for_now</title><path class="cls-1" d="M27.34,43.29c2.76,0,5.39-.58,6.77,3.27,1,2.72,7.83,3.12,10.18,1.16a3.12,3.12,0,0,0,1.31-3.26,3.68,3.68,0,0,0-2.83-2.7c-4.19-1.18-8.61-1.4-12.68-3-6.47-2.62-9.2-8.7-6.79-15.25a10.48,10.48,0,0,1,6.44-6.37A25.23,25.23,0,0,1,47.67,17a11.55,11.55,0,0,1,5.66,4.11c1.32,1.83,3,4,2.05,6.08C54.64,28.87,52,28,50.2,28.3c-2.73.49-5,.81-6.65-2.55-1.1-2.29-6.94-2.28-8.94-.58s-1.28,4.36,1.69,5.3c4,1.27,8.34,1.45,12.32,3C53,35.17,56,38,56.49,42.94c.69,6.49-2.18,11.21-8.39,13.3a26.68,26.68,0,0,1-17.25-.05c-4.65-1.55-7.31-4.76-8.62-9.49-.85-3,0-3.81,2.86-3.42A16.89,16.89,0,0,0,27.34,43.29Z"/><path class="cls-2" d="M132.21,36.59c0-5.88.06-11.75,0-17.63,0-1.94.59-2.61,2.57-2.59q12,.14,24,0c1.91,0,2.56.48,2.62,2.49.19,6.49.28,6.49-6.36,6.49-3.25,0-6.51.13-9.75,0-2.75-.15-2.21,1.68-2.2,3.21s-.59,3.38,2.16,3.29c4-.13,8,.12,12-.08,2.5-.13,3.45.68,3.1,3.16a11.51,11.51,0,0,0,0,3c.25,2.09-.51,2.9-2.69,2.82-4-.14-8,.13-12-.09-3.54-.19-2.41,2.24-2.59,4-.2,1.95,0,3.29,2.65,3.16,4.87-.24,9.75,0,14.62-.1,1.84,0,2.25.45,2,2.36-.75,6.61-.65,6.62-7.2,6.62s-13-.16-19.49.07c-2.94.11-3.59-.92-3.49-3.63C132.35,47.59,132.22,42.08,132.21,36.59Z"/><path class="cls-3" d="M97.27,56.64H92.44c-5.76,0-5.83,0-7.68-5.62-.51-1.57-1.19-2.31-2.88-2.17-1.49.12-3,0-4.49,0-6.42,0-6.45,0-8.63,5.86a2.53,2.53,0,0,1-2.65,1.94c-9.15.49-9.17.54-6.2-7.94,3.45-9.87,7-19.68,10.35-29.59.74-2.21,1.75-2.81,4-2.81,9.41,0,9.41-.07,12.47,8.7,3.21,9.16,6.44,18.3,9.62,27.46C96.76,53.77,97.56,55,97.27,56.64Z"/><path class="cls-4" d="M100.55,36.36c0-5.75.08-11.5,0-17.24,0-2.13.59-2.8,2.74-2.76,7.49.12,15,.09,22.49,0,1.81,0,2.64.29,2.71,2.41.21,6.64.32,6.63-6.26,6.64h-8.62c-3.64,0-1.8,2.82-2.13,4.41S111,33.1,113.68,33c3.61-.18,7.25.08,10.87-.09,2.22-.1,3,.44,3,2.86,0,6.19.1,6.14-6,6.21-3.23.05-7.42-1.37-9.43.56-2.2,2.11-.89,6.41-.67,9.69.23,3.6-.75,4.73-4.47,4.54-6.45-.33-6.46-.09-6.46-6.49Z"/><path class="cls-5" d="M227.87,36.87c-.21-5.91,1-11.07,4.65-15.38,4.42-5.28,10.22-6.86,16.87-5.71,5.94,1,9.4,4.72,11.19,10.29.39,1.19.72,2.19-.81,2.71-1.35.46-2-.19-2.54-1.41-3.39-7.27-6.44-9.27-13-8.74-5.76.47-10.24,4.54-11.93,11.28a25.06,25.06,0,0,0,1,16.51c2.42,5.53,6.84,8.18,13.14,8,6-.18,9-2.37,11.21-8.55.56-1.57,1.22-2.48,2.87-2,2.21.58.71,2.1.47,3C259.46,53,254.35,57,247.67,57.54c-8.45.65-15-3-17.95-10A23.06,23.06,0,0,1,227.87,36.87Z"/><path class="cls-6" d="M202.67,19.83c0,3.74,0,7.48-.19,11.21-.14,2.41.6,3.3,3.12,3.2,4.85-.18,9.72-.11,14.58,0,1.18,0,3.1-.78,3.16,1.45.07,2.49-2,1.7-3.33,1.73-4.73.09-9.48.2-14.2,0-2.72-.13-3.45.88-3.33,3.4.19,4.1.13,8.22.18,12.33,6.1.62,12.22.09,18.33.29,1.14,0,2.82-.51,2.87,1.42s-1.59,1.53-2.77,1.53c-6.24,0-12.49-.05-18.73,0-2.48,0-3.27-1-3.25-3.37.06-11,.08-22,0-33,0-2.66,1.07-3.49,3.59-3.45,5.87.11,11.74,0,17.61.06,1,0,2.6-.56,2.67,1.13s-1.37,1.8-2.71,1.83C214.4,19.74,208.53,19.34,202.67,19.83Z"/><path class="cls-7" d="M177.57,38c0-5.12-.08-10.25,0-15.36,0-2.1-.62-2.94-2.75-2.85-3,.12-6,0-9,0-1.12,0-2.31.1-2.4-1.6-.09-1.91,1.16-1.89,2.47-1.89l26.6,0c1.28,0,2.59-.09,2.5,1.84s-1.55,1.6-2.73,1.62a52.84,52.84,0,0,1-7.12,0c-3.59-.43-4.34,1.1-4.27,4.42.22,9.24.08,18.48.07,27.73,0,.87,0,1.75,0,2.62,0,1.31-.38,2.17-1.92,2.08s-1.45-1.11-1.46-2.12c0-5.5,0-11,0-16.49Z"/><path class="cls-8" d="M202.67,19.83c5-1.35,10.14-.16,15.19-.64,1.55-.14,4.26,1,4.25-1.37,0-1.56-2.74-.75-4.23-.78-5-.11-10,0-15-.06-2.36-.05-3.41.81-3.4,3.26q.09,16.31,0,32.61c0,2.19.83,3.19,3.09,3.17,6.13-.06,12.25,0,18.37,0,.92,0,2.35.3,2.27-1.17s-1.48-1-2.4-1c-4.88,0-9.75,0-14.62,0-1.2,0-2.53.44-3.55-.63,6.37,0,12.73,0,19.09.1,1.22,0,3.39-.94,3.25,1.7-.11,2.3-2,1.79-3.41,1.8-6.61,0-13.23-.06-19.84.06-2.32,0-3-.8-3-3.05.09-11.35.07-22.71,0-34.06,0-2.24.45-3.47,3.08-3.41,6.6.14,13.22.05,19.83.08,1.2,0,2.65-.25,2.68,1.69s-1.41,1.73-2.62,1.73C215.39,19.8,209,19.81,202.67,19.83Z"/><path class="cls-9" d="M81.28,40c-8.42.86-8.43.85-6.16-6.51.57-1.86,1.21-3.7,2.18-6.68Z"/></svg>