<svg id="Layer_1" data-name="Layer 1" xmlns="http://www.w3.org/2000/svg" viewBox="0 0 1920 1080"><defs><style>.cls-1{fill:#694b4b;}.cls-2{fill:#5a4146;}.cls-3{fill:#785550;}.cls-4{fill:#e6af78;}.cls-5{fill:#eff2fa;}.cls-6{fill:#d29b6e;}.cls-7{fill:#e4eaf6;}.cls-8{fill:#f0c087;}.cls-17,.cls-18,.cls-25,.cls-26,.cls-28,.cls-9{font-size:40px;font-family:FranklinGothic-Heavy, Franklin Gothic Heavy;font-weight:800;}.cls-9{fill:red;}.cls-10{letter-spacing:-0.01em;}.cls-11{letter-spacing:0em;}.cls-12{fill:#707487;}.cls-13{fill:#5b5d6e;}.cls-14{fill:#515262;}.cls-15{fill:#b4e1fa;}.cls-16{fill:#a0d2f0;}.cls-18{fill:#087ef4;}.cls-19{letter-spacing:0em;}.cls-20,.cls-21,.cls-22,.cls-24,.cls-27,.cls-29{fill:none;stroke-miterlimit:10;stroke-width:5px;}.cls-20{stroke:#e4eaf6;}.cls-21{stroke:#39b54a;}.cls-22{stroke:#f7931e;}.cls-23{letter-spacing:-0.02em;}.cls-24{stroke:red;}.cls-25{fill:#f7931e;}.cls-26{fill:#39b54a;}.cls-27{stroke:#087ef4;}.cls-28{fill:#662d91;}.cls-29{stroke:#662d91;}</style></defs><title>forenlighetsmatrise</title><path class="cls-1" d="M1603.05,175.56c-55.91,0-49.71,68-49.46,117.26a5.26,5.26,0,0,0,2.58,4.5,94.36,94.36,0,0,0,93.76,0,5.25,5.25,0,0,0,2.57-4.5C1652.76,243.56,1659,175.56,1603.05,175.56Z"/><path class="cls-2" d="M1599.45,175.71c-52,2.91-46.11,68.94-45.86,117.11a5.26,5.26,0,0,0,2.58,4.5,92.63,92.63,0,0,0,46.88,12.47l14.13-98.9"/><path class="cls-1" d="M1603.05,175.56c-31.79,0-34,38.42-34,38.42,18.32-3.09,29.58,4.63,48.13-3.09l-14.13,98.9a92.54,92.54,0,0,0,46.87-12.47,5.25,5.25,0,0,0,2.58-4.5C1652.76,243.56,1659,175.56,1603.05,175.56Z"/><path class="cls-3" d="M1652.5,292.82c.22-42.33,4.79-98.45-29.39-113.42-.59,3.1-1.68,11.75,1.13,17.36,7.07,14.13,14.13,14.13,21.19,24.72,7.07,38.86-13.49,80.1-20.32,85.71h0a88.71,88.71,0,0,0,24.81-9.87A5.24,5.24,0,0,0,1652.5,292.82Z"/><path class="cls-4" d="M1656.57,303.54l-31.51-13.13a7.06,7.06,0,0,1-4.35-6.52v-8.54h-35.32v8.54a7.07,7.07,0,0,1-4.35,6.52l-31.52,13.13a10.59,10.59,0,0,0-6.52,9.78v14.13a7.07,7.07,0,0,0,7.07,7.07h106a7.08,7.08,0,0,0,7.07-7.07V313.32A10.6,10.6,0,0,0,1656.57,303.54Z"/><path class="cls-5" d="M1656.57,303.54l-30.47-12.7-23,10-23-10-30.48,12.7a10.59,10.59,0,0,0-6.52,9.78v14.13a7.07,7.07,0,0,0,7.06,7.07h106a7.08,7.08,0,0,0,7.07-7.07V313.32A10.6,10.6,0,0,0,1656.57,303.54Z"/><path class="cls-6" d="M1620.71,275.35h-35.32v8.54a7.07,7.07,0,0,1-4.35,6.52l-4.92,2C1613.79,302.06,1620.71,275.35,1620.71,275.35Z"/><path class="cls-7" d="M1560.22,317.2,1546,305.93a10.57,10.57,0,0,0-3,7.39v14.13a7.07,7.07,0,0,0,7.06,7.07h14.13v-9A10.62,10.62,0,0,0,1560.22,317.2Z"/><path class="cls-7" d="M1663.1,327.45V313.32a10.56,10.56,0,0,0-3-7.35l-14.22,11.23a10.62,10.62,0,0,0-4,8.28v9H1656A7.06,7.06,0,0,0,1663.1,327.45Z"/><path class="cls-7" d="M1603.58,327.45h-1.06a3,3,0,0,1-3-3V300.8h7.06v23.65A3,3,0,0,1,1603.58,327.45Z"/><path class="cls-7" d="M1603.05,300.79l-20.22-15.16a2.82,2.82,0,0,0-4,.69l-4,6,12.4,17.35a2.82,2.82,0,0,0,4.06.56Z"/><path class="cls-7" d="M1603.05,300.79l20.21-15.16a2.83,2.83,0,0,1,4,.69l4,6-12.4,17.35a2.82,2.82,0,0,1-4.06.56Z"/><path class="cls-8" d="M1620.71,207.35c-17.66,17.67-52.32,3.54-52.32,31.79l2.19,20.82a14.1,14.1,0,0,0,7.21,11.07l20.11,11.17a10.58,10.58,0,0,0,10.29,0L1628.3,271a14.1,14.1,0,0,0,7.21-11.07l2.54-24.72a39,39,0,0,0,.15-5.29C1636.88,221,1624.24,214.42,1620.71,207.35Z"/><path class="cls-4" d="M1568.39,239.14l2.19,20.82a14.1,14.1,0,0,0,7.21,11.07l20.11,11.17a10.51,10.51,0,0,0,7.19,1.08h0s-10.14-3.07-16.17-19.41c-1.85-5-4.42-31.5-2.21-34.73,4.36-6.4,28.7-7.07,35.89-18.94-.35-.44-.68-.88-1-1.32l-.08-.11a14.8,14.8,0,0,1-.83-1.41C1603.05,225,1568.39,210.89,1568.39,239.14Z"/><path class="cls-7" d="M1628.83,327.45h-9.18a6,6,0,0,0-6,6v1.05h21.19v-1.05A6,6,0,0,0,1628.83,327.45Z"/><text class="cls-9" transform="translate(1433.76 106.62)">S<tspan class="cls-10" x="24.3" y="0">k</tspan><tspan x="46.97" y="0">ade</tspan><tspan class="cls-11" x="117.38" y="0">s</tspan><tspan x="138.77" y="0">tedsleder</tspan></text><path class="cls-1" d="M335.76,173.56c-55.55,0-49.39,67.56-49.14,116.52a5.23,5.23,0,0,0,2.56,4.47,93.77,93.77,0,0,0,93.17,0,5.23,5.23,0,0,0,2.56-4.47C385.16,241.12,391.32,173.56,335.76,173.56Z"/><path class="cls-2" d="M332.18,173.7c-51.67,2.89-45.81,68.51-45.56,116.38a5.23,5.23,0,0,0,2.56,4.47,92.13,92.13,0,0,0,46.58,12.39l14-98.28"/><path class="cls-1" d="M335.76,173.56c-31.59,0-33.78,38.17-33.78,38.17,18.21-3.07,29.4,4.61,47.82-3.07l-14,98.28a92.14,92.14,0,0,0,46.59-12.39,5.23,5.23,0,0,0,2.56-4.47C385.16,241.12,391.32,173.56,335.76,173.56Z"/><path class="cls-3" d="M384.91,290.08c.21-42.07,4.76-97.84-29.21-112.71-.59,3.08-1.67,11.67,1.12,17.25,7,14,14,14,21.06,24.57,7,38.61-13.41,79.59-20.2,85.17h0a88.38,88.38,0,0,0,24.67-9.81A5.23,5.23,0,0,0,384.91,290.08Z"/><path class="cls-4" d="M389,300.73l-31.32-13.05a7,7,0,0,1-4.32-6.48v-8.48h-35.1v8.48a7,7,0,0,1-4.32,6.48l-31.32,13.05a10.53,10.53,0,0,0-6.48,9.72v14a7,7,0,0,0,7,7h105.3a7,7,0,0,0,7-7v-14A10.52,10.52,0,0,0,389,300.73Z"/><path class="cls-5" d="M389,300.73l-30.28-12.62L335.76,298l-22.9-9.89-30.29,12.62a10.53,10.53,0,0,0-6.48,9.72v14a7,7,0,0,0,7,7h105.3a7,7,0,0,0,7-7v-14A10.52,10.52,0,0,0,389,300.73Z"/><path class="cls-6" d="M353.31,272.72h-35.1v8.48a7,7,0,0,1-4.32,6.48l-4.89,2C346.44,299.26,353.31,272.72,353.31,272.72Z"/><path class="cls-7" d="M293.2,314.31,279.11,303.1a10.5,10.5,0,0,0-3,7.35v14a7,7,0,0,0,7,7h14v-9A10.52,10.52,0,0,0,293.2,314.31Z"/><path class="cls-7" d="M395.43,324.49v-14a10.52,10.52,0,0,0-3-7.31l-14.13,11.17a10.51,10.51,0,0,0-4,8.22v9h14A7,7,0,0,0,395.43,324.49Z"/><path class="cls-7" d="M336.29,324.49h-1.05a3,3,0,0,1-3-3V298h7v23.5A3,3,0,0,1,336.29,324.49Z"/><path class="cls-7" d="M335.76,298l-20.09-15.07a2.81,2.81,0,0,0-4,.69l-4,5.95L320,306.82a2.82,2.82,0,0,0,4,.56Z"/><path class="cls-7" d="M335.76,298l20.09-15.07a2.81,2.81,0,0,1,4,.69l4,5.95-12.31,17.25a2.82,2.82,0,0,1-4,.56Z"/><path class="cls-8" d="M353.31,205.15c-17.55,17.55-52,3.51-52,31.59l2.18,20.68a14,14,0,0,0,7.16,11l20,11.11a10.57,10.57,0,0,0,10.23,0l20-11.11a14,14,0,0,0,7.16-11l2.52-24.56a38.53,38.53,0,0,0,.16-5.26C369.39,218.67,356.82,212.17,353.31,205.15Z"/><path class="cls-4" d="M301.32,236.74l2.18,20.68a14,14,0,0,0,7.16,11l20,11.11a10.5,10.5,0,0,0,7.15,1.06h0s-10.08-3-16.08-19.28c-1.83-5-4.38-31.3-2.19-34.52,4.33-6.36,28.52-7,35.66-18.82-.35-.43-.68-.87-1-1.31a.76.76,0,0,1-.08-.11,13.53,13.53,0,0,1-.83-1.4C335.76,222.7,301.32,208.66,301.32,236.74Z"/><path class="cls-7" d="M361.39,324.49h-9.13a6,6,0,0,0-6,6v1.05h21.06v-1.05A6,6,0,0,0,361.39,324.49Z"/><polygon class="cls-4" points="523.81 284.36 523.81 264.89 473.73 264.89 473.73 284.36 498.77 306.62 523.81 284.36"/><path class="cls-12" d="M562.52,293.47l-34.42-8.1a5.57,5.57,0,0,1-1.45-.58l-27.88,16.26L472,284a5.44,5.44,0,0,1-2.53,1.37L435,293.47a11.12,11.12,0,0,0-8.58,10.83v21.79a5.57,5.57,0,0,0,5.56,5.57H565.53a5.57,5.57,0,0,0,5.57-5.57V304.3A11.12,11.12,0,0,0,562.52,293.47Z"/><path class="cls-6" d="M473.73,264.89v20.54c31.54,11.37,50.08-17.07,50.08-17.07v-3.47Z"/><path class="cls-8" d="M462.6,200.9,465,254.24a16.69,16.69,0,0,0,6.66,12.59l11.5,8.63a16.67,16.67,0,0,0,10,3.34h11.12a16.69,16.69,0,0,0,10-3.34l11.5-8.63a16.69,16.69,0,0,0,6.66-12.59l2.42-53.34Z"/><path class="cls-4" d="M490.42,212c11.13,0,27.82-2.78,31.78-11.13H462.6L465,254.24a16.66,16.66,0,0,0,6.66,12.59l11.5,8.63a16.67,16.67,0,0,0,10,3.34h5.56c-5.57,0-16.69-11.13-16.69-25V220.38C482.08,217.6,484.86,212,490.42,212Z"/><path class="cls-13" d="M550.68,313.6l18-16.19a11.11,11.11,0,0,1,2.4,6.89v21.79a5.56,5.56,0,0,1-5.56,5.56H546.06V324A13.91,13.91,0,0,1,550.68,313.6Z"/><path class="cls-13" d="M446.86,313.6l-18-16.19a11,11,0,0,0-2.4,6.89v21.79a5.56,5.56,0,0,0,5.56,5.56h19.48V324A13.91,13.91,0,0,0,446.86,313.6Z"/><polygon class="cls-13" points="505.72 331.65 491.81 331.65 493.55 306.62 503.99 306.62 505.72 331.65"/><path class="cls-14" d="M505.72,301.05H491.81v1.61a6.74,6.74,0,0,0,6.74,6.74H499a6.74,6.74,0,0,0,6.74-6.74v-1.61Z"/><path class="cls-13" d="M473.34,278.17l25.43,22.88a96.46,96.46,0,0,0-15.91,10.84,3.57,3.57,0,0,1-5.53-1.25l-11.94-26.28,3.78-5.67A2.77,2.77,0,0,1,473.34,278.17Z"/><path class="cls-13" d="M524.2,278.17l-25.43,22.88a96.46,96.46,0,0,1,15.91,10.84,3.57,3.57,0,0,0,5.53-1.25l11.94-26.28-3.78-5.67A2.77,2.77,0,0,0,524.2,278.17Z"/><path class="cls-3" d="M515.63,182.47l2.61,18.43c11.91,2.39,13.62,21.07,13.87,26.41A5.48,5.48,0,0,0,533,230l4.54,7S536,225.42,543.1,217.6C543.1,217.6,545.54,171.35,515.63,182.47Z"/><path class="cls-8" d="M540.32,235.88l-3.14,12.57a3.35,3.35,0,0,1-3.24,2.53h0a3.35,3.35,0,0,1-3.32-2.93L529,235.2a5.76,5.76,0,0,1,5.72-6.48h0A5.76,5.76,0,0,1,540.32,235.88Z"/><path class="cls-1" d="M465.27,177.49l4.12,2.81c-18.61,13.74-15.13,37.3-15.13,37.3,5.56,5.56,5.56,19.47,5.56,19.47l5.57-5.57s-2.15-16.07,8.34-22.25c9.74-5.74,18.26-2.78,26.95-2.78,23.3,0,29.82-8.78,28.69-19.48-.58-5.53-9-17.05-30.6-16.69C490.07,170.45,473.73,173.08,465.27,177.49Z"/><path class="cls-2" d="M463.65,204s-3-11.65,5.74-23.73c-18.61,13.74-15.13,37.3-15.13,37.3,5.56,5.56,5.56,19.47,5.56,19.47l5.57-5.57s-2.15-16.07,8.34-22.25c9.74-5.74,18.26-2.78,26.95-2.78a69,69,0,0,0,10-.69C492.77,206.38,482.19,192.79,463.65,204Z"/><path class="cls-4" d="M457.21,235.88l3.15,12.57A3.35,3.35,0,0,0,463.6,251h0a3.35,3.35,0,0,0,3.32-2.93l1.61-12.85a5.76,5.76,0,0,0-5.72-6.48h0A5.77,5.77,0,0,0,457.21,235.88Z"/><path class="cls-13" d="M532.15,326.09H518.24a5.56,5.56,0,0,0-5.56,5.57h25A5.57,5.57,0,0,0,532.15,326.09Z"/><polygon class="cls-4" points="699.81 284.82 699.81 265.28 649.56 265.28 649.56 284.82 674.68 307.15 699.81 284.82"/><path class="cls-5" d="M738.65,294l-34.54-8.13a5.57,5.57,0,0,1-1.45-.58l-28,16.32L647.8,284.46a5.6,5.6,0,0,1-2.55,1.37L610.71,294a11.16,11.16,0,0,0-8.61,10.87v21.86a5.58,5.58,0,0,0,5.59,5.58h134a5.58,5.58,0,0,0,5.58-5.58V304.83A11.15,11.15,0,0,0,738.65,294Z"/><path class="cls-6" d="M649.56,265.28v20.61c31.65,11.41,50.25-17.13,50.25-17.13v-3.48Z"/><path class="cls-8" d="M638.39,201.07l2.44,53.52a16.72,16.72,0,0,0,6.68,12.64l11.54,8.65a16.72,16.72,0,0,0,10.05,3.35h11.17a16.67,16.67,0,0,0,10-3.35l11.55-8.65a16.76,16.76,0,0,0,6.68-12.64L711,201.07Z"/><path class="cls-4" d="M666.31,212.24c11.16,0,27.91-2.79,31.89-11.17H638.39l2.44,53.52a16.72,16.72,0,0,0,6.68,12.64l11.54,8.65a16.72,16.72,0,0,0,10.05,3.35h5.58c-5.58,0-16.75-11.16-16.75-25.12v-33.5C657.93,217.82,660.73,212.24,666.31,212.24Z"/><path class="cls-7" d="M726.77,314.16l18.09-16.25a11.17,11.17,0,0,1,2.4,6.92v21.86a5.58,5.58,0,0,1-5.58,5.58H722.14v-7.73A13.93,13.93,0,0,1,726.77,314.16Z"/><path class="cls-7" d="M622.6,314.16l-18.09-16.25a11.12,11.12,0,0,0-2.41,6.92v21.86a5.58,5.58,0,0,0,5.59,5.58h19.54v-7.73A14,14,0,0,0,622.6,314.16Z"/><polygon class="cls-13" points="681.66 332.27 667.7 332.27 669.45 307.15 679.92 307.15 681.66 332.27"/><path class="cls-14" d="M681.66,301.57h-14v1.61a6.77,6.77,0,0,0,6.77,6.76h.43a6.76,6.76,0,0,0,6.76-6.76v-1.61Z"/><path class="cls-7" d="M649.17,278.6l25.51,23a96.61,96.61,0,0,0-16,10.88,3.58,3.58,0,0,1-5.55-1.25l-12-26.37,3.8-5.69A2.79,2.79,0,0,1,649.17,278.6Z"/><path class="cls-7" d="M700.2,278.6l-25.52,23a96.41,96.41,0,0,1,16,10.88,3.57,3.57,0,0,0,5.54-1.25l12-26.37-3.79-5.69A2.79,2.79,0,0,0,700.2,278.6Z"/><path class="cls-3" d="M691.61,182.58l2.61,18.49c11.95,2.39,13.67,21.14,13.92,26.49a5.42,5.42,0,0,0,.88,2.73l4.56,7.07s-1.56-11.69,5.58-19.54C719.16,217.82,721.62,171.41,691.61,182.58Z"/><path class="cls-8" d="M716.38,236.17l-3.15,12.61a3.37,3.37,0,0,1-3.26,2.54h0a3.36,3.36,0,0,1-3.33-2.94L705,235.48a5.77,5.77,0,0,1,5.73-6.49h0A5.78,5.78,0,0,1,716.38,236.17Z"/><path class="cls-1" d="M641.07,177.58l4.13,2.82C626.53,194.18,630,217.82,630,217.82c5.58,5.58,5.58,19.54,5.58,19.54l5.58-5.58s-2.15-16.13,8.38-22.33c9.77-5.76,18.32-2.8,27-2.8,23.38,0,29.92-8.81,28.79-19.54-.59-5.55-9.08-17.11-30.71-16.74C666,170.51,649.56,173.16,641.07,177.58Z"/><path class="cls-2" d="M639.44,204.21s-3-11.69,5.76-23.81C626.53,194.18,630,217.82,630,217.82c5.58,5.58,5.58,19.54,5.58,19.54l5.58-5.58s-2.15-16.13,8.38-22.33c9.77-5.76,18.32-2.8,27-2.8a68.16,68.16,0,0,0,10.07-.69C668.66,206.57,658.05,192.93,639.44,204.21Z"/><path class="cls-4" d="M633,236.17l3.15,12.61a3.35,3.35,0,0,0,3.25,2.54h0a3.35,3.35,0,0,0,3.33-2.94l1.62-12.9A5.78,5.78,0,0,0,638.6,229h0A5.77,5.77,0,0,0,633,236.17Z"/><path class="cls-7" d="M708.18,326.69h-14a5.58,5.58,0,0,0-5.58,5.58h25.12A5.58,5.58,0,0,0,708.18,326.69Z"/><path class="cls-1" d="M187.63,171.7c-53.5,0-47.57,65.06-47.33,112.21a5,5,0,0,0,2.47,4.3,90.29,90.29,0,0,0,89.71,0,5,5,0,0,0,2.47-4.3C235.19,236.76,241.13,171.7,187.63,171.7Z"/><path class="cls-2" d="M184.18,171.83c-49.76,2.79-44.12,66-43.88,112.08a5,5,0,0,0,2.47,4.3,88.73,88.73,0,0,0,44.86,11.93l13.52-94.64"/><path class="cls-1" d="M187.63,171.7c-30.42,0-32.54,36.76-32.54,36.76,17.54-3,28.31,4.43,46.06-3l-13.52,94.64a88.68,88.68,0,0,0,44.85-11.93,5,5,0,0,0,2.47-4.3C235.19,236.76,241.13,171.7,187.63,171.7Z"/><path class="cls-3" d="M235,283.91c.21-40.52,4.58-94.22-28.12-108.54-.58,3-1.61,11.24,1.08,16.61,6.76,13.52,13.52,13.52,20.28,23.66,6.76,37.18-12.92,76.64-19.45,82h0a84.91,84.91,0,0,0,23.74-9.44A5,5,0,0,0,235,283.91Z"/><path class="cls-4" d="M238.85,294.16l-30.16-12.57a6.76,6.76,0,0,1-4.16-6.24v-8.17h-33.8v8.17a6.76,6.76,0,0,1-4.16,6.24l-30.16,12.57a10.14,10.14,0,0,0-6.24,9.36V323.8a6.76,6.76,0,0,0,6.76,6.76h101.4a6.76,6.76,0,0,0,6.76-6.76V303.52A10.14,10.14,0,0,0,238.85,294.16Z"/><path class="cls-15" d="M238.85,294.16,209.69,282l-22.06,9.52L165.57,282l-29.16,12.15a10.14,10.14,0,0,0-6.24,9.36V323.8a6.76,6.76,0,0,0,6.76,6.76h101.4a6.76,6.76,0,0,0,6.76-6.76V303.52A10.14,10.14,0,0,0,238.85,294.16Z"/><path class="cls-6" d="M204.53,267.18h-33.8v8.17a6.77,6.77,0,0,1-4.16,6.24l-4.71,2C197.9,292.75,204.53,267.18,204.53,267.18Z"/><path class="cls-16" d="M146.64,307.24l-13.57-10.8a10.12,10.12,0,0,0-2.9,7.08V323.8a6.76,6.76,0,0,0,6.76,6.76h13.52V315.15A10.11,10.11,0,0,0,146.64,307.24Z"/><path class="cls-16" d="M245.09,323.8V303.52a10.08,10.08,0,0,0-2.87-7l-13.61,10.75a10.13,10.13,0,0,0-3.8,7.91v15.41h13.52A6.76,6.76,0,0,0,245.09,323.8Z"/><path class="cls-16" d="M187.63,317h0a3.38,3.38,0,0,1-3.38-3.38V291.54H191v22.12A3.38,3.38,0,0,1,187.63,317Z"/><path class="cls-16" d="M187.63,291.53,168.28,277a2.7,2.7,0,0,0-3.87.66l-3.82,5.74L172.45,300a2.7,2.7,0,0,0,3.89.54Z"/><path class="cls-16" d="M187.63,291.53,207,277a2.7,2.7,0,0,1,3.87.66l3.83,5.74L202.81,300a2.7,2.7,0,0,1-3.89.54Z"/><path class="cls-8" d="M204.53,202.12c-16.9,16.9-50.07,3.38-50.07,30.42l2.1,19.92a13.51,13.51,0,0,0,6.9,10.59l19.24,10.69a10.1,10.1,0,0,0,9.85,0l19.24-10.69a13.51,13.51,0,0,0,6.9-10.59l2.43-23.66a38.83,38.83,0,0,0,.15-5.06C220,215.14,207.91,208.88,204.53,202.12Z"/><path class="cls-4" d="M154.46,232.54l2.1,19.92a13.51,13.51,0,0,0,6.9,10.59l19.24,10.69a10.09,10.09,0,0,0,6.88,1h0s-9.7-2.94-15.47-18.57c-1.77-4.79-4.23-30.14-2.12-33.24,4.18-6.12,27.47-6.76,34.35-18.12a15.37,15.37,0,0,1-.94-1.27l-.08-.1a11.82,11.82,0,0,1-.79-1.35C187.63,219,154.46,205.5,154.46,232.54Z"/><path class="cls-16" d="M213.57,317H202.24a4.47,4.47,0,0,0-4.47,4.47v9.05h20.28v-9.05A4.48,4.48,0,0,0,213.57,317Z"/><text class="cls-17" transform="translate(253.68 106.62)">Bereds<tspan class="cls-10" x="132.56" y="0">k</tspan><tspan x="155.23" y="0">apsledelse</tspan></text><text class="cls-18" transform="translate(484.31 560.62)">Fø<tspan class="cls-19" x="45.64" y="0">r</tspan><tspan class="cls-11" x="61.05" y="0">s</tspan><tspan x="82.44" y="0">tehjelpslag</tspan></text><rect class="cls-20" x="98.21" y="126.5" width="681" height="257" rx="60.43"/><rect class="cls-21" x="882.97" y="668.22" width="634" height="199" rx="60.43"/><rect class="cls-22" x="859.47" y="638.5" width="681" height="251" rx="60.43"/><path class="cls-15" d="M1140.28,298.47l-35.59-8.37a5.54,5.54,0,0,1-1.49-.6l-28.82,16.81-27.69-17.62a5.81,5.81,0,0,1-2.62,1.41l-35.58,8.37a11.51,11.51,0,0,0-8.87,11.2v22.52a5.74,5.74,0,0,0,5.75,5.75h138a5.74,5.74,0,0,0,5.75-5.75V309.67A11.51,11.51,0,0,0,1140.28,298.47Z"/><path class="cls-16" d="M1020.73,319.28l-18.63-16.74a11.51,11.51,0,0,0-2.48,7.13v22.52a5.74,5.74,0,0,0,5.75,5.75h20.13v-8A14.4,14.4,0,0,0,1020.73,319.28Z"/><path class="cls-16" d="M1128,319.28l18.64-16.74a11.5,11.5,0,0,1,2.47,7.13v22.52a5.74,5.74,0,0,1-5.75,5.75h-20.13v-8A14.4,14.4,0,0,1,1128,319.28Z"/><polygon class="cls-13" points="1081.57 337.94 1067.19 337.94 1068.99 312.06 1079.77 312.06 1081.57 337.94"/><path class="cls-14" d="M1081.57,306.31h-14.38v5.41a3.22,3.22,0,0,0,3.22,3.22h7.94a3.22,3.22,0,0,0,3.22-3.22v-5.41Z"/><polygon class="cls-4" points="1099 284.59 1099 265.59 1050.14 265.59 1050.14 284.59 1074.57 306.31 1099 284.59"/><path class="cls-6" d="M1050.14,265.59v20.05C1080.92,296.73,1099,269,1099,269v-3.39Z"/><path class="cls-8" d="M1039.28,203.16l2.37,52a16.3,16.3,0,0,0,6.5,12.29l11.22,8.42a16.32,16.32,0,0,0,9.77,3.26H1080a16.28,16.28,0,0,0,9.77-3.26l11.23-8.42a16.3,16.3,0,0,0,6.5-12.29l2.36-52Z"/><path class="cls-4" d="M1066.43,214c10.86,0,27.14-2.72,31-10.86h-58.16l2.37,52a16.27,16.27,0,0,0,6.5,12.29l11.22,8.42a16.32,16.32,0,0,0,9.77,3.26h5.43c-5.43,0-16.28-10.86-16.28-24.44V222.16C1058.29,219.45,1061,214,1066.43,214Z"/><path class="cls-3" d="M1091,185.18l2.54,18c11.62,2.32,13.3,20.55,13.54,25.76a5.29,5.29,0,0,0,.85,2.65l4.44,6.88s-1.52-11.37,5.43-19C1117.83,219.45,1120.21,174.32,1091,185.18Z"/><path class="cls-8" d="M1115.12,237.29l-3.06,12.26a3.27,3.27,0,0,1-3.17,2.47h0a3.27,3.27,0,0,1-3.24-2.86l-1.57-12.54a5.63,5.63,0,0,1,5.58-6.32h0A5.62,5.62,0,0,1,1115.12,237.29Z"/><path class="cls-1" d="M1041.89,180.31l4,2.74c-18.15,13.41-14.76,36.4-14.76,36.4,5.43,5.43,5.43,19,5.43,19L1042,233s-2.1-15.68,8.14-21.72c9.5-5.6,17.82-2.71,26.3-2.71,22.73,0,29.1-8.57,28-19-.57-5.4-8.82-16.65-29.86-16.29C1066.08,173.44,1050.14,176,1041.89,180.31Z"/><path class="cls-2" d="M1040.3,206.21s-2.88-11.36,5.6-23.16c-18.15,13.41-14.76,36.4-14.76,36.4,5.43,5.43,5.43,19,5.43,19L1042,233s-2.1-15.68,8.14-21.72c9.5-5.6,17.82-2.71,26.3-2.71a67.31,67.31,0,0,0,9.79-.67C1068.72,208.5,1058.4,195.24,1040.3,206.21Z"/><path class="cls-4" d="M1034,237.29l3.06,12.26a3.26,3.26,0,0,0,3.17,2.47h0a3.28,3.28,0,0,0,3.24-2.86l1.56-12.54a5.62,5.62,0,0,0-5.57-6.32h0A5.62,5.62,0,0,0,1034,237.29Z"/><path class="cls-16" d="M1048.1,282.66l26.28,23.65a99.3,99.3,0,0,0-16.44,11.21,3.7,3.7,0,0,1-5.72-1.3l-12.34-27.16,3.9-5.86A2.87,2.87,0,0,1,1048.1,282.66Z"/><path class="cls-16" d="M1100.66,282.66l-26.28,23.65a99.58,99.58,0,0,1,16.45,11.21,3.69,3.69,0,0,0,5.71-1.3l12.35-27.16L1105,283.2A2.87,2.87,0,0,0,1100.66,282.66Z"/><path class="cls-16" d="M1111.76,332.19h-20.13a2.88,2.88,0,0,0-2.87,2.88v2.87h25.88v-2.87A2.88,2.88,0,0,0,1111.76,332.19Z"/><text class="cls-17" transform="translate(869.88 106.62)"><tspan class="cls-23">K</tspan><tspan x="25.27" y="0">ontrollromsoperatør</tspan></text><rect class="cls-20" x="840.88" y="126.75" width="467" height="257.73" rx="60.43"/><rect class="cls-24" x="1369.55" y="125.18" width="467" height="258.32" rx="60.43"/><text class="cls-25" transform="translate(1086.56 518.62)">Helidekklag</text><text class="cls-26" transform="translate(1091.06 560.62)">MOB-båtlag</text><path class="cls-1" d="M1729.43,787c-42.77,0-38,52-37.83,89.71a4,4,0,0,0,2,3.44,72.19,72.19,0,0,0,71.73,0,4,4,0,0,0,2-3.44C1767.46,839,1772.21,787,1729.43,787Z"/><path class="cls-2" d="M1726.68,787.11c-39.78,2.23-35.27,52.75-35.08,89.6a4,4,0,0,0,2,3.44,70.87,70.87,0,0,0,35.86,9.54L1740.24,814"/><path class="cls-1" d="M1729.43,787c-24.32,0-26,29.39-26,29.39,14-2.37,22.64,3.55,36.82-2.37l-10.81,75.67a70.88,70.88,0,0,0,35.87-9.54,4,4,0,0,0,2-3.44C1767.46,839,1772.21,787,1729.43,787Z"/><path class="cls-3" d="M1767.27,876.71c.16-32.39,3.66-75.32-22.49-86.77-.45,2.37-1.28,9,.87,13.28,5.4,10.8,10.81,10.8,16.21,18.91,5.4,29.73-10.33,61.28-15.55,65.57h0a67.84,67.84,0,0,0,19-7.55A4,4,0,0,0,1767.27,876.71Z"/><path class="cls-4" d="M1770.38,884.91l-24.11-10a5.42,5.42,0,0,1-3.33-5v-6.53h-27v6.53a5.41,5.41,0,0,1-3.32,5l-24.12,10a8.11,8.11,0,0,0-5,7.48V903.2a5.41,5.41,0,0,0,5.41,5.41H1770a5.41,5.41,0,0,0,5.4-5.41V892.39A8.11,8.11,0,0,0,1770.38,884.91Z"/><path class="cls-5" d="M1770.38,884.91l-23.31-9.72-17.64,7.62-17.63-7.62-23.32,9.72a8.11,8.11,0,0,0-5,7.48V903.2a5.41,5.41,0,0,0,5.41,5.41H1770a5.41,5.41,0,0,0,5.4-5.41V892.39A8.11,8.11,0,0,0,1770.38,884.91Z"/><path class="cls-6" d="M1742.94,863.34h-27v6.53a5.41,5.41,0,0,1-3.32,5l-3.77,1.57C1737.65,883.78,1742.94,863.34,1742.94,863.34Z"/><path class="cls-7" d="M1696.66,895.36l-10.84-8.63a8.08,8.08,0,0,0-2.33,5.66V903.2a5.41,5.41,0,0,0,5.41,5.41h10.81v-6.92A8.1,8.1,0,0,0,1696.66,895.36Z"/><path class="cls-7" d="M1775.37,903.2V892.39a8.1,8.1,0,0,0-2.29-5.62l-10.88,8.59a8.12,8.12,0,0,0-3,6.33v6.91H1770A5.4,5.4,0,0,0,1775.37,903.2Z"/><path class="cls-7" d="M1729.84,903.2H1729a2.3,2.3,0,0,1-2.3-2.3V882.81h5.41V900.9A2.3,2.3,0,0,1,1729.84,903.2Z"/><path class="cls-7" d="M1729.43,882.81,1714,871.21a2.16,2.16,0,0,0-3.1.53l-3.06,4.58,9.49,13.27a2.17,2.17,0,0,0,3.11.44Z"/><path class="cls-7" d="M1729.43,882.81l15.47-11.6a2.14,2.14,0,0,1,3.09.53l3.06,4.58-9.48,13.27a2.17,2.17,0,0,1-3.11.44Z"/><path class="cls-8" d="M1742.94,811.32c-13.51,13.51-40,2.7-40,24.32l1.67,15.93a10.83,10.83,0,0,0,5.52,8.47l15.39,8.54a8.1,8.1,0,0,0,7.87,0l15.39-8.54a10.82,10.82,0,0,0,5.51-8.47l1.94-18.92a32,32,0,0,0,.12-4C1755.32,821.73,1745.65,816.73,1742.94,811.32Z"/><path class="cls-4" d="M1702.92,835.64l1.67,15.93a10.83,10.83,0,0,0,5.52,8.47l15.39,8.54a8.06,8.06,0,0,0,5.5.83h0s-7.76-2.35-12.38-14.85c-1.41-3.83-3.37-24.1-1.69-26.57,3.34-4.9,22-5.41,27.46-14.49-.27-.34-.52-.68-.75-1l-.06-.09a12.22,12.22,0,0,1-.64-1.08C1729.43,824.83,1702.92,814,1702.92,835.64Z"/><path class="cls-7" d="M1749.16,903.2h-7a4.6,4.6,0,0,0-4.59,4.59v.81h16.21v-.81A4.59,4.59,0,0,0,1749.16,903.2Z"/><path class="cls-15" d="M1655.12,880.79l-27.39-6.44a4.32,4.32,0,0,1-1.15-.46l-22.19,12.94-21.32-13.57a4.34,4.34,0,0,1-2,1.09l-27.39,6.44a8.86,8.86,0,0,0-6.83,8.62v17.34a4.43,4.43,0,0,0,4.43,4.42h106.25a4.42,4.42,0,0,0,4.42-4.42V889.41A8.85,8.85,0,0,0,1655.12,880.79Z"/><path class="cls-16" d="M1563.09,896.81l-14.34-12.88a8.83,8.83,0,0,0-1.91,5.48v17.34a4.43,4.43,0,0,0,4.43,4.42h15.5V905A11.06,11.06,0,0,0,1563.09,896.81Z"/><path class="cls-16" d="M1645.69,896.81,1660,883.93a8.82,8.82,0,0,1,1.9,5.48v17.34a4.42,4.42,0,0,1-4.42,4.42H1642V905A11.09,11.09,0,0,1,1645.69,896.81Z"/><polygon class="cls-13" points="1609.93 911.17 1598.86 911.17 1600.24 891.25 1608.54 891.25 1609.93 911.17"/><path class="cls-14" d="M1609.93,886.83h-11.07V891a2.48,2.48,0,0,0,2.47,2.48h6.12a2.48,2.48,0,0,0,2.48-2.48v-4.16Z"/><polygon class="cls-4" points="1623.35 870.11 1623.35 855.48 1585.73 855.48 1585.73 870.11 1604.54 886.83 1623.35 870.11"/><path class="cls-6" d="M1585.73,855.48v15.44c23.7,8.53,37.62-12.83,37.62-12.83v-2.61Z"/><path class="cls-8" d="M1577.38,807.42l1.82,40.06a12.5,12.5,0,0,0,5,9.46l8.64,6.48a12.52,12.52,0,0,0,7.52,2.51h8.36a12.52,12.52,0,0,0,7.52-2.51l8.64-6.48a12.5,12.5,0,0,0,5-9.46l1.83-40.06Z"/><path class="cls-4" d="M1598.27,815.78c8.36,0,20.9-2.09,23.87-8.36h-44.76l1.82,40.06a12.5,12.5,0,0,0,5,9.46l8.64,6.48a12.52,12.52,0,0,0,7.52,2.51h4.18c-4.18,0-12.54-8.36-12.54-18.81V822.05C1592,820,1594.09,815.78,1598.27,815.78Z"/><path class="cls-3" d="M1617.21,793.58l2,13.84c8.94,1.79,10.23,15.83,10.41,19.83a4.19,4.19,0,0,0,.67,2l3.41,5.29s-1.17-8.75,4.18-14.63C1637.84,820,1639.67,785.22,1617.21,793.58Z"/><path class="cls-8" d="M1635.75,833.69l-2.36,9.44A2.51,2.51,0,0,1,1631,845h0a2.52,2.52,0,0,1-2.5-2.2l-1.2-9.66a4.32,4.32,0,0,1,4.29-4.86h0A4.32,4.32,0,0,1,1635.75,833.69Z"/><path class="cls-1" d="M1579.38,789.84l3.09,2.11c-14,10.31-11.36,28-11.36,28,4.18,4.18,4.18,14.63,4.18,14.63l4.18-4.18s-1.62-12.07,6.27-16.72c7.31-4.31,13.71-2.09,20.24-2.09,17.5,0,22.4-6.59,21.55-14.62-.44-4.16-6.8-12.82-23-12.54C1598,784.55,1585.73,786.53,1579.38,789.84Z"/><path class="cls-2" d="M1578.16,809.77s-2.22-8.75,4.31-17.82c-14,10.31-11.36,28-11.36,28,4.18,4.18,4.18,14.63,4.18,14.63l4.18-4.18s-1.62-12.07,6.27-16.72c7.31-4.31,13.71-2.09,20.24-2.09a52.35,52.35,0,0,0,7.53-.51C1600,811.54,1592.09,801.33,1578.16,809.77Z"/><path class="cls-4" d="M1573.33,833.69l2.36,9.44a2.51,2.51,0,0,0,2.44,1.91h0a2.52,2.52,0,0,0,2.49-2.2l1.21-9.66a4.33,4.33,0,0,0-4.3-4.86h0A4.32,4.32,0,0,0,1573.33,833.69Z"/><path class="cls-16" d="M1584.16,868.62l20.23,18.21a76.53,76.53,0,0,0-12.65,8.62,2.84,2.84,0,0,1-4.4-1l-9.51-20.91,3-4.51A2.21,2.21,0,0,1,1584.16,868.62Z"/><path class="cls-16" d="M1624.63,868.62l-20.24,18.21a76.33,76.33,0,0,1,12.66,8.62,2.84,2.84,0,0,0,4.4-1l9.5-20.91-3-4.51A2.21,2.21,0,0,0,1624.63,868.62Z"/><path class="cls-16" d="M1633.17,906.75h-15.5a2.21,2.21,0,0,0-2.21,2.21v2.21h19.92V909A2.21,2.21,0,0,0,1633.17,906.75Z"/><polygon class="cls-4" points="1626.45 718.51 1626.45 703.51 1587.9 703.51 1587.9 718.51 1607.18 735.64 1626.45 718.51"/><path class="cls-12" d="M1656.26,725.52l-26.5-6.24a4.36,4.36,0,0,1-1.12-.44l-21.46,12.52-20.63-13.13a4.26,4.26,0,0,1-2,1l-26.5,6.24a8.57,8.57,0,0,0-6.61,8.34v16.77a4.29,4.29,0,0,0,4.28,4.29h102.81a4.29,4.29,0,0,0,4.28-4.29V733.86A8.56,8.56,0,0,0,1656.26,725.52Z"/><path class="cls-6" d="M1587.9,703.52v15.81c24.28,8.75,38.55-13.14,38.55-13.14v-2.67Z"/><path class="cls-8" d="M1579.34,654.26l1.86,41.06a12.87,12.87,0,0,0,5.13,9.69l8.85,6.64a12.85,12.85,0,0,0,7.71,2.57h8.57a12.83,12.83,0,0,0,7.71-2.57L1628,705a12.83,12.83,0,0,0,5.12-9.69l1.87-41.06Z"/><path class="cls-4" d="M1600.75,662.82c8.57,0,21.42-2.14,24.47-8.56h-45.88l1.86,41.06a12.87,12.87,0,0,0,5.13,9.69l8.85,6.64a12.85,12.85,0,0,0,7.71,2.57h4.29c-4.29,0-12.85-8.56-12.85-19.27v-25.7C1594.33,667.11,1596.47,662.82,1600.75,662.82Z"/><path class="cls-13" d="M1647.14,741,1661,728.55a8.57,8.57,0,0,1,1.84,5.31v16.77a4.29,4.29,0,0,1-4.28,4.29h-15V749A10.69,10.69,0,0,1,1647.14,741Z"/><path class="cls-13" d="M1567.22,741l-13.88-12.47a8.52,8.52,0,0,0-1.85,5.31v16.77a4.29,4.29,0,0,0,4.29,4.29h15V749A10.69,10.69,0,0,0,1567.22,741Z"/><polygon class="cls-13" points="1612.53 754.92 1601.82 754.92 1603.16 735.64 1611.19 735.64 1612.53 754.92"/><path class="cls-14" d="M1612.53,731.36h-10.71v1.23a5.19,5.19,0,0,0,5.19,5.19h.33a5.19,5.19,0,0,0,5.19-5.19v-1.23Z"/><path class="cls-13" d="M1587.6,713.74l19.58,17.62a73.61,73.61,0,0,0-12.25,8.34,2.75,2.75,0,0,1-4.26-1l-9.19-20.23,2.91-4.37A2.14,2.14,0,0,1,1587.6,713.74Z"/><path class="cls-13" d="M1626.75,713.74l-19.57,17.62a73.61,73.61,0,0,1,12.25,8.34,2.74,2.74,0,0,0,4.25-1l9.2-20.23-2.91-4.37A2.15,2.15,0,0,0,1626.75,713.74Z"/><path class="cls-3" d="M1620.16,640.07l2,14.19c9.16,1.83,10.49,16.21,10.68,20.32a4.17,4.17,0,0,0,.67,2.09l3.5,5.43s-1.2-9,4.28-15C1641.3,667.11,1643.19,631.5,1620.16,640.07Z"/><path class="cls-8" d="M1639.17,681.18l-2.42,9.68a2.59,2.59,0,0,1-2.5,1.95h0a2.57,2.57,0,0,1-2.55-2.26l-1.24-9.89a4.44,4.44,0,0,1,4.4-5h0A4.43,4.43,0,0,1,1639.17,681.18Z"/><path class="cls-1" d="M1581.39,636.23l3.17,2.16c-14.33,10.58-11.65,28.72-11.65,28.72,4.28,4.28,4.28,15,4.28,15l4.29-4.29s-1.66-12.37,6.42-17.13c7.5-4.42,14.06-2.14,20.75-2.14,17.94,0,23-6.76,22.09-15-.45-4.26-7-13.14-23.56-12.85C1600.48,630.81,1587.9,632.84,1581.39,636.23Z"/><path class="cls-2" d="M1580.14,656.66s-2.28-9,4.42-18.27c-14.33,10.58-11.65,28.72-11.65,28.72,4.28,4.28,4.28,15,4.28,15l4.29-4.29s-1.66-12.37,6.42-17.13c7.5-4.42,14.06-2.14,20.75-2.14a53.18,53.18,0,0,0,7.72-.53C1602.56,658.47,1594.42,648,1580.14,656.66Z"/><path class="cls-4" d="M1575.19,681.18l2.41,9.68a2.59,2.59,0,0,0,2.5,1.95h0a2.58,2.58,0,0,0,2.56-2.26l1.23-9.89a4.43,4.43,0,0,0-4.39-5h0A4.43,4.43,0,0,0,1575.19,681.18Z"/><path class="cls-13" d="M1632.88,750.63h-10.71a4.28,4.28,0,0,0-4.28,4.29h19.27A4.29,4.29,0,0,0,1632.88,750.63Z"/><path class="cls-1" d="M1726.49,631.65c-41.19,0-36.63,50.09-36.44,86.39a3.89,3.89,0,0,0,1.9,3.31,69.48,69.48,0,0,0,69.07,0,3.89,3.89,0,0,0,1.9-3.31C1763.11,681.74,1767.67,631.65,1726.49,631.65Z"/><path class="cls-2" d="M1723.83,631.75c-38.31,2.15-34,50.8-33.78,86.29a3.89,3.89,0,0,0,1.9,3.31,68.3,68.3,0,0,0,34.54,9.19l10.4-72.87"/><path class="cls-1" d="M1726.49,631.65c-23.42,0-25,28.3-25,28.3,13.5-2.28,21.79,3.42,35.45-2.28l-10.4,72.87a68.26,68.26,0,0,0,34.53-9.19,3.89,3.89,0,0,0,1.9-3.31C1763.11,681.74,1767.67,631.65,1726.49,631.65Z"/><path class="cls-3" d="M1762.92,718c.16-31.19,3.53-72.54-21.65-83.56-.44,2.28-1.24,8.65.83,12.78,5.2,10.41,10.41,10.41,15.61,18.22,5.21,28.62-9.94,59-15,63.14h0a65.36,65.36,0,0,0,18.28-7.27A3.89,3.89,0,0,0,1762.92,718Z"/><path class="cls-4" d="M1765.92,725.93l-23.22-9.67a5.21,5.21,0,0,1-3.2-4.81v-6.29h-26v6.29a5.21,5.21,0,0,1-3.2,4.81l-23.22,9.67a7.81,7.81,0,0,0-4.8,7.21v15.61a5.2,5.2,0,0,0,5.2,5.21h78.07a5.2,5.2,0,0,0,5.2-5.21V733.14A7.81,7.81,0,0,0,1765.92,725.93Z"/><path class="cls-15" d="M1765.92,725.93l-22.45-9.35-17,7.33-17-7.33-22.45,9.35a7.81,7.81,0,0,0-4.8,7.21v15.61a5.2,5.2,0,0,0,5.2,5.21h78.07a5.2,5.2,0,0,0,5.2-5.21V733.14A7.81,7.81,0,0,0,1765.92,725.93Z"/><path class="cls-6" d="M1739.5,705.16h-26v6.29a5.21,5.21,0,0,1-3.2,4.81l-3.63,1.51C1734.4,724.84,1739.5,705.16,1739.5,705.16Z"/><path class="cls-16" d="M1694.93,736l-10.44-8.31a7.79,7.79,0,0,0-2.24,5.45v15.61a5.2,5.2,0,0,0,5.2,5.21h10.41V742.09A7.8,7.8,0,0,0,1694.93,736Z"/><path class="cls-16" d="M1770.72,748.75V733.14a7.79,7.79,0,0,0-2.2-5.42L1758,736a7.8,7.8,0,0,0-2.93,6.09V754h10.41A5.2,5.2,0,0,0,1770.72,748.75Z"/><path class="cls-16" d="M1726.49,743.55h0a2.61,2.61,0,0,1-2.61-2.61v-17h5.21v17A2.61,2.61,0,0,1,1726.49,743.55Z"/><path class="cls-16" d="M1726.49,723.91l-14.9-11.17a2.07,2.07,0,0,0-3,.51l-2.94,4.41,9.13,12.79a2.07,2.07,0,0,0,3,.41Z"/><path class="cls-16" d="M1726.49,723.91l14.89-11.17a2.07,2.07,0,0,1,3,.51l2.94,4.41-9.13,12.79a2.07,2.07,0,0,1-3,.41Z"/><path class="cls-8" d="M1739.5,655.07c-13,13-38.55,2.6-38.55,23.42l1.62,15.34a10.39,10.39,0,0,0,5.31,8.15l14.81,8.23a7.82,7.82,0,0,0,7.59,0l14.81-8.23a10.39,10.39,0,0,0,5.31-8.15l1.87-18.22a28,28,0,0,0,.11-3.89C1751.41,665.09,1742.1,660.28,1739.5,655.07Z"/><path class="cls-4" d="M1701,678.49l1.62,15.34a10.39,10.39,0,0,0,5.31,8.15l14.81,8.23a7.8,7.8,0,0,0,5.3.8h0s-7.47-2.27-11.91-14.3c-1.37-3.69-3.26-23.21-1.63-25.59,3.21-4.72,21.14-5.21,26.44-14-.26-.33-.5-.65-.72-1l-.06-.08a8.54,8.54,0,0,1-.61-1C1726.49,668.08,1701,657.67,1701,678.49Z"/><path class="cls-16" d="M1746.46,743.55h-8.72a3.44,3.44,0,0,0-3.45,3.44v7h15.62v-7A3.45,3.45,0,0,0,1746.46,743.55Z"/><text class="cls-9" transform="translate(1408.19 560.62)">Søk og redningslag</text><rect class="cls-24" x="1355.55" y="587.83" width="467" height="359.9" rx="60.43"/><rect class="cls-27" x="87.41" y="589.72" width="1090.09" height="358" rx="60.43"/><path class="cls-1" d="M456,722.05c-41.9,0-37.26,51-37.07,87.87a4,4,0,0,0,1.94,3.38,70.74,70.74,0,0,0,70.26,0,4,4,0,0,0,1.93-3.38C493.25,773,497.9,722.05,456,722.05Z"/><path class="cls-2" d="M453.3,722.15c-39,2.19-34.55,51.67-34.37,87.77a4,4,0,0,0,1.94,3.38A69.42,69.42,0,0,0,456,822.64l10.59-74.12"/><path class="cls-1" d="M456,722.05c-23.83,0-25.48,28.78-25.48,28.78,13.73-2.31,22.17,3.48,36.07-2.31L456,822.64a69.56,69.56,0,0,0,35.13-9.34,4,4,0,0,0,1.93-3.38C493.25,773,497.9,722.05,456,722.05Z"/><path class="cls-3" d="M493.06,809.92c.16-31.72,3.59-73.78-22-85-.44,2.32-1.25,8.8.85,13,5.3,10.59,10.59,10.59,15.88,18.53,5.3,29.12-10.11,60-15.23,64.23h0a66.61,66.61,0,0,0,18.6-7.39A4,4,0,0,0,493.06,809.92Z"/><path class="cls-4" d="M496.11,818l-23.62-9.85a5.3,5.3,0,0,1-3.26-4.88v-6.4H442.76v6.4a5.28,5.28,0,0,1-3.26,4.88L415.88,818a7.93,7.93,0,0,0-4.88,7.33v10.59a5.29,5.29,0,0,0,5.29,5.29h79.42a5.29,5.29,0,0,0,5.29-5.29V825.29A7.94,7.94,0,0,0,496.11,818Z"/><path class="cls-5" d="M496.11,818l-22.84-9.52L456,815.9l-17.28-7.46L415.88,818a7.93,7.93,0,0,0-4.88,7.33v10.59a5.29,5.29,0,0,0,5.29,5.29H495.7a5.29,5.29,0,0,0,5.3-5.29V825.29A7.94,7.94,0,0,0,496.11,818Z"/><path class="cls-6" d="M469.23,796.83H442.76v6.4a5.28,5.28,0,0,1-3.26,4.88l-3.69,1.54C464.05,816.85,469.23,796.83,469.23,796.83Z"/><path class="cls-7" d="M423.9,828.2l-10.63-8.46a8,8,0,0,0-2.27,5.55v10.58a5.29,5.29,0,0,0,5.29,5.3h10.59V834.4A7.93,7.93,0,0,0,423.9,828.2Z"/><path class="cls-7" d="M501,835.87V825.29a7.92,7.92,0,0,0-2.24-5.51L488.1,828.2a7.9,7.9,0,0,0-3,6.2v6.77h10.59A5.29,5.29,0,0,0,501,835.87Z"/><path class="cls-7" d="M456.39,835.87h-.79a2.25,2.25,0,0,1-2.25-2.25V815.9h5.3v17.72A2.25,2.25,0,0,1,456.39,835.87Z"/><path class="cls-7" d="M456,815.9l-15.15-11.37a2.13,2.13,0,0,0-3,.52l-3,4.49,9.29,13a2.12,2.12,0,0,0,3.05.42Z"/><path class="cls-7" d="M456,815.9l15.15-11.37a2.12,2.12,0,0,1,3,.52l3,4.49-9.28,13a2.12,2.12,0,0,1-3.05.42Z"/><path class="cls-8" d="M469.23,745.87C456,759.11,430,748.52,430,769.69l1.65,15.6a10.58,10.58,0,0,0,5.4,8.3L452.14,802a8,8,0,0,0,7.71,0l15.08-8.38a10.6,10.6,0,0,0,5.4-8.3l1.9-18.52a30.92,30.92,0,0,0,.12-4C481.36,756.07,471.88,751.16,469.23,745.87Z"/><path class="cls-4" d="M430,769.69l1.65,15.6a10.58,10.58,0,0,0,5.4,8.3L452.14,802a7.92,7.92,0,0,0,5.39.8h0s-7.6-2.3-12.12-14.54c-1.39-3.75-3.31-23.61-1.66-26,3.27-4.79,21.51-5.29,26.9-14.19-.27-.33-.51-.66-.74-1,0,0,0,0-.05-.08a9,9,0,0,1-.63-1.06C456,759.11,430,748.52,430,769.69Z"/><path class="cls-7" d="M475.32,835.87h-6.88a4.5,4.5,0,0,0-4.5,4.5v.8h15.88v-.8A4.5,4.5,0,0,0,475.32,835.87Z"/><polygon class="cls-4" points="244.38 806.87 244.38 792.14 206.49 792.14 206.49 806.87 225.44 823.72 244.38 806.87"/><path class="cls-5" d="M273.68,813.77l-26.05-6.13a4.15,4.15,0,0,1-1.09-.44l-21.1,12.31L205.16,806.6a4.24,4.24,0,0,1-1.92,1l-26.05,6.13a8.42,8.42,0,0,0-6.49,8.2v16.48a4.2,4.2,0,0,0,4.21,4.21H276a4.2,4.2,0,0,0,4.21-4.21V822A8.4,8.4,0,0,0,273.68,813.77Z"/><path class="cls-6" d="M206.49,792.14v15.55c23.87,8.59,37.9-12.93,37.9-12.93v-2.62Z"/><path class="cls-8" d="M198.07,743.72l1.83,40.36a12.63,12.63,0,0,0,5,9.53l8.71,6.53a12.6,12.6,0,0,0,7.58,2.52h8.42a12.64,12.64,0,0,0,7.58-2.52l8.7-6.53a12.63,12.63,0,0,0,5-9.53l1.84-40.36Z"/><path class="cls-4" d="M219.12,752.14c8.42,0,21-2.11,24-8.42h-45.1l1.83,40.36a12.63,12.63,0,0,0,5,9.53l8.71,6.53a12.6,12.6,0,0,0,7.58,2.52h4.21c-4.21,0-12.63-8.42-12.63-18.94V758.45C212.81,756.35,214.91,752.14,219.12,752.14Z"/><path class="cls-7" d="M264.72,829l13.64-12.25a8.38,8.38,0,0,1,1.81,5.21v16.49a4.2,4.2,0,0,1-4.21,4.21H261.23v-5.83A10.53,10.53,0,0,1,264.72,829Z"/><path class="cls-7" d="M186.16,829l-13.65-12.25A8.38,8.38,0,0,0,170.7,822v16.49a4.21,4.21,0,0,0,4.21,4.21h14.74v-5.83A10.53,10.53,0,0,0,186.16,829Z"/><polygon class="cls-13" points="230.7 842.66 220.17 842.66 221.49 823.72 229.38 823.72 230.7 842.66"/><path class="cls-14" d="M230.7,819.51H220.17v1.21a5.1,5.1,0,0,0,5.1,5.1h.33a5.1,5.1,0,0,0,5.1-5.1v-1.21Z"/><path class="cls-7" d="M206.19,802.19l19.25,17.31a73.17,73.17,0,0,0-12,8.21,2.71,2.71,0,0,1-4.19-1l-9-19.89,2.86-4.29A2.11,2.11,0,0,1,206.19,802.19Z"/><path class="cls-7" d="M244.68,802.19,225.44,819.5a73.17,73.17,0,0,1,12,8.21,2.7,2.7,0,0,0,4.18-1l9-19.89-2.86-4.29A2.11,2.11,0,0,0,244.68,802.19Z"/><path class="cls-3" d="M238.2,729.77l2,14c9,1.8,10.31,15.94,10.5,20a4.15,4.15,0,0,0,.66,2l3.44,5.33s-1.17-8.81,4.21-14.73C259,756.35,260.83,721.35,238.2,729.77Z"/><path class="cls-8" d="M256.88,770.18l-2.37,9.51a2.53,2.53,0,0,1-2.46,1.92h0a2.54,2.54,0,0,1-2.51-2.22l-1.22-9.72a4.37,4.37,0,0,1,4.33-4.9h0A4.35,4.35,0,0,1,256.88,770.18Z"/><path class="cls-1" d="M200.09,726l3.11,2.12c-14.08,10.4-11.45,28.23-11.45,28.23,4.21,4.21,4.21,14.73,4.21,14.73l4.21-4.21s-1.62-12.16,6.32-16.84c7.37-4.34,13.82-2.1,20.4-2.1,17.63,0,22.56-6.65,21.71-14.74-.45-4.19-6.85-12.91-23.16-12.63C218.85,720.67,206.49,722.66,200.09,726Z"/><path class="cls-2" d="M198.86,746.08s-2.24-8.81,4.34-18c-14.08,10.4-11.45,28.23-11.45,28.23,4.21,4.21,4.21,14.73,4.21,14.73l4.21-4.21s-1.62-12.16,6.32-16.84c7.37-4.34,13.82-2.1,20.4-2.1a51.61,51.61,0,0,0,7.59-.53C220.9,747.86,212.89,737.57,198.86,746.08Z"/><path class="cls-4" d="M194,770.18l2.38,9.51a2.52,2.52,0,0,0,2.45,1.92h0a2.54,2.54,0,0,0,2.52-2.22l1.21-9.72a4.35,4.35,0,0,0-4.32-4.9h0A4.35,4.35,0,0,0,194,770.18Z"/><path class="cls-7" d="M250.7,838.45H240.17a4.22,4.22,0,0,0-4.21,4.21h18.95A4.21,4.21,0,0,0,250.7,838.45Z"/><path class="cls-1" d="M345.58,721.7c-40.34,0-35.87,49.07-35.69,84.63a3.79,3.79,0,0,0,1.86,3.24,68.08,68.08,0,0,0,67.66,0,3.77,3.77,0,0,0,1.86-3.24C381.46,770.77,385.93,721.7,345.58,721.7Z"/><path class="cls-2" d="M343,721.8c-37.52,2.11-33.27,49.76-33.09,84.53a3.79,3.79,0,0,0,1.86,3.24,66.85,66.85,0,0,0,33.83,9l10.2-71.38"/><path class="cls-1" d="M345.58,721.7c-22.94,0-24.53,27.72-24.53,27.72,13.22-2.23,21.35,3.35,34.73-2.23l-10.2,71.38a66.82,66.82,0,0,0,33.83-9,3.8,3.8,0,0,0,1.87-3.24C381.46,770.77,385.93,721.7,345.58,721.7Z"/><path class="cls-3" d="M381.28,806.33c.15-30.56,3.45-71.06-21.22-81.86-.43,2.24-1.21,8.48.82,12.53,5.1,10.19,10.2,10.19,15.29,17.84,5.1,28-9.74,57.8-14.67,61.86h0a63.92,63.92,0,0,0,17.91-7.13A3.8,3.8,0,0,0,381.28,806.33Z"/><path class="cls-4" d="M384.21,814.06l-22.74-9.48a5.1,5.1,0,0,1-3.14-4.7v-6.16H332.84v6.16a5.1,5.1,0,0,1-3.14,4.7L307,814.06a7.65,7.65,0,0,0-4.71,7.06v15.29a5.1,5.1,0,0,0,5.1,5.1h76.47a5.1,5.1,0,0,0,5.1-5.1V821.12A7.65,7.65,0,0,0,384.21,814.06Z"/><path class="cls-15" d="M384.21,814.06l-22-9.16-16.64,7.18L329,804.9l-22,9.16a7.66,7.66,0,0,0-4.7,7.06v15.29a5.1,5.1,0,0,0,5.1,5.1h76.47a5.1,5.1,0,0,0,5.1-5.1V821.12A7.65,7.65,0,0,0,384.21,814.06Z"/><path class="cls-6" d="M358.33,793.72H332.84v6.16a5.1,5.1,0,0,1-3.14,4.7l-3.55,1.48C353.33,813,358.33,793.72,358.33,793.72Z"/><path class="cls-16" d="M314.67,823.92l-10.23-8.14a7.65,7.65,0,0,0-2.19,5.34v15.29a5.1,5.1,0,0,0,5.1,5.1h10.19V829.89A7.63,7.63,0,0,0,314.67,823.92Z"/><path class="cls-16" d="M388.92,836.41V821.12a7.66,7.66,0,0,0-2.16-5.31l-10.27,8.11a7.66,7.66,0,0,0-2.87,6v11.62h10.2A5.1,5.1,0,0,0,388.92,836.41Z"/><path class="cls-16" d="M345.58,831.32h0a2.55,2.55,0,0,1-2.54-2.55V812.08h5.09v16.69A2.55,2.55,0,0,1,345.58,831.32Z"/><path class="cls-16" d="M345.58,812.08l-14.59-11a2,2,0,0,0-2.92.5L325.19,806l8.95,12.52a2,2,0,0,0,2.93.41Z"/><path class="cls-16" d="M345.58,812.08l14.59-11a2,2,0,0,1,2.92.5L366,806l-9,12.52a2,2,0,0,1-2.93.41Z"/><path class="cls-8" d="M358.33,744.64c-12.75,12.75-37.76,2.55-37.76,23l1.58,15a10.22,10.22,0,0,0,5.21,8l14.51,8.06a7.62,7.62,0,0,0,7.43,0l14.51-8.06a10.18,10.18,0,0,0,5.2-8l1.83-17.84A28.69,28.69,0,0,0,371,761C370,754.46,360.88,749.74,358.33,744.64Z"/><path class="cls-4" d="M320.57,767.59l1.58,15a10.22,10.22,0,0,0,5.21,8l14.51,8.06a7.64,7.64,0,0,0,5.19.78h0s-7.32-2.22-11.67-14c-1.34-3.61-3.19-22.73-1.6-25.07,3.15-4.61,20.72-5.09,25.9-13.66-.25-.32-.49-.64-.7-1l-.06-.07a8.34,8.34,0,0,1-.6-1C345.58,757.39,320.57,747.19,320.57,767.59Z"/><path class="cls-16" d="M365.15,831.32h-8.54a3.37,3.37,0,0,0-3.38,3.37v6.82h15.3v-6.82A3.37,3.37,0,0,0,365.15,831.32Z"/><text class="cls-28" transform="translate(246.56 677.62)">Livbåtlag</text><rect class="cls-29" x="133.83" y="691.18" width="404.05" height="195.32" rx="60.43"/><polygon class="cls-4" points="1453.94 796.73 1453.94 781.68 1415.26 781.68 1415.26 796.73 1434.6 813.92 1453.94 796.73"/><path class="cls-5" d="M1483.85,803.76l-26.59-6.26a4.36,4.36,0,0,1-1.12-.44l-21.54,12.56-20.7-13.17a4.21,4.21,0,0,1-2,1l-26.6,6.26a8.61,8.61,0,0,0-6.63,8.37V829a4.3,4.3,0,0,0,4.3,4.3h103.16a4.3,4.3,0,0,0,4.3-4.3V812.13A8.61,8.61,0,0,0,1483.85,803.76Z"/><path class="cls-6" d="M1415.26,781.68v15.87c24.37,8.78,38.68-13.19,38.68-13.19v-2.68Z"/><path class="cls-8" d="M1406.66,732.25l1.88,41.2a12.88,12.88,0,0,0,5.14,9.73l8.89,6.67a12.9,12.9,0,0,0,7.73,2.58h8.6a12.93,12.93,0,0,0,7.74-2.58l8.88-6.67a12.89,12.89,0,0,0,5.15-9.73l1.87-41.2Z"/><path class="cls-4" d="M1428.15,740.85c8.6,0,21.5-2.15,24.55-8.6h-46l1.88,41.2a12.88,12.88,0,0,0,5.14,9.73l8.89,6.67a12.9,12.9,0,0,0,7.73,2.58h4.3c-4.3,0-12.89-8.6-12.89-19.35V747.29C1421.71,745.15,1423.86,740.85,1428.15,740.85Z"/><path class="cls-7" d="M1474.7,819.31l13.93-12.51a8.64,8.64,0,0,1,1.85,5.33V829a4.31,4.31,0,0,1-4.3,4.3h-15v-6A10.75,10.75,0,0,1,1474.7,819.31Z"/><path class="cls-7" d="M1394.5,819.31l-13.92-12.51a8.58,8.58,0,0,0-1.86,5.33V829a4.31,4.31,0,0,0,4.3,4.3h15v-6A10.76,10.76,0,0,0,1394.5,819.31Z"/><polygon class="cls-13" points="1439.97 833.26 1429.23 833.26 1430.57 813.92 1438.63 813.92 1439.97 833.26"/><path class="cls-14" d="M1440,809.62h-10.74v1.24a5.21,5.21,0,0,0,5.21,5.21h.33a5.2,5.2,0,0,0,5.2-5.21v-1.24Z"/><path class="cls-7" d="M1415,791.94l19.64,17.68a74.53,74.53,0,0,0-12.29,8.37,2.75,2.75,0,0,1-4.27-1l-9.23-20.31,2.92-4.38A2.15,2.15,0,0,1,1415,791.94Z"/><path class="cls-7" d="M1454.25,791.94l-19.65,17.68a74.53,74.53,0,0,1,12.29,8.37,2.75,2.75,0,0,0,4.27-1l9.23-20.31-2.92-4.38A2.14,2.14,0,0,0,1454.25,791.94Z"/><path class="cls-3" d="M1447.63,718l2,14.24c9.19,1.84,10.52,16.27,10.71,20.4a4.18,4.18,0,0,0,.68,2.1l3.51,5.44s-1.2-9,4.3-15C1468.85,745.15,1470.73,709.42,1447.63,718Z"/><path class="cls-8" d="M1466.7,759.27l-2.42,9.71a2.59,2.59,0,0,1-2.51,2h0a2.59,2.59,0,0,1-2.56-2.27l-1.25-9.93a4.45,4.45,0,0,1,4.42-5h0A4.44,4.44,0,0,1,1466.7,759.27Z"/><path class="cls-1" d="M1408.72,714.16l3.18,2.17c-14.37,10.62-11.68,28.82-11.68,28.82,4.29,4.29,4.29,15,4.29,15l4.3-4.3s-1.66-12.42,6.45-17.19c7.52-4.43,14.1-2.15,20.82-2.15,18,0,23-6.78,22.16-15-.45-4.28-7-13.18-23.64-12.9C1427.88,708.73,1415.26,710.76,1408.72,714.16Z"/><path class="cls-2" d="M1407.47,734.67s-2.28-9,4.43-18.34c-14.37,10.62-11.68,28.82-11.68,28.82,4.29,4.29,4.29,15,4.29,15l4.3-4.3s-1.66-12.42,6.45-17.19c7.52-4.43,14.1-2.15,20.82-2.15a53.61,53.61,0,0,0,7.75-.53C1430,736.48,1421.8,726,1407.47,734.67Z"/><path class="cls-4" d="M1402.5,759.27l2.43,9.71a2.58,2.58,0,0,0,2.5,2h0a2.59,2.59,0,0,0,2.57-2.27l1.24-9.93a4.45,4.45,0,0,0-4.42-5h0A4.45,4.45,0,0,0,1402.5,759.27Z"/><path class="cls-7" d="M1460.39,829h-10.74a4.3,4.3,0,0,0-4.3,4.3h19.34A4.3,4.3,0,0,0,1460.39,829Z"/><path class="cls-1" d="M968.11,711.26c-39.72,0-35.31,48.3-35.13,83.3a3.74,3.74,0,0,0,1.83,3.2,67,67,0,0,0,66.61,0,3.74,3.74,0,0,0,1.83-3.2C1003.43,759.56,1007.83,711.26,968.11,711.26Z"/><path class="cls-2" d="M965.55,711.36c-36.94,2.07-32.75,49-32.57,83.2a3.74,3.74,0,0,0,1.83,3.2,65.86,65.86,0,0,0,33.3,8.86l10-70.27"/><path class="cls-1" d="M968.11,711.26c-22.58,0-24.15,27.29-24.15,27.29,13-2.2,21,3.29,34.19-2.2l-10,70.27a65.87,65.87,0,0,0,33.31-8.86,3.74,3.74,0,0,0,1.83-3.2C1003.43,759.56,1007.83,711.26,968.11,711.26Z"/><path class="cls-3" d="M1003.25,794.56c.15-30.07,3.4-69.94-20.88-80.58-.43,2.2-1.19,8.35.8,12.33,5,10,10,10,15.06,17.57,5,27.6-9.59,56.9-14.45,60.89h0a63.18,63.18,0,0,0,17.64-7A3.74,3.74,0,0,0,1003.25,794.56Z"/><path class="cls-4" d="M1006.14,802.18l-22.39-9.33a5,5,0,0,1-3.09-4.64v-6.06H955.57v6.06a5,5,0,0,1-3.09,4.64l-22.39,9.33a7.53,7.53,0,0,0-4.64,7v10a5,5,0,0,0,5,5h75.29a5,5,0,0,0,5-5v-10A7.52,7.52,0,0,0,1006.14,802.18Z"/><path class="cls-5" d="M1006.14,802.18l-21.65-9-16.38,7.06-16.37-7.06-21.65,9a7.53,7.53,0,0,0-4.64,7v10a5,5,0,0,0,5,5h75.28a5,5,0,0,0,5-5v-10A7.52,7.52,0,0,0,1006.14,802.18Z"/><path class="cls-6" d="M980.66,782.15H955.57v6.06a5,5,0,0,1-3.09,4.64L949,794.3C975.74,801.13,980.66,782.15,980.66,782.15Z"/><path class="cls-7" d="M937.68,811.89l-10.07-8a7.52,7.52,0,0,0-2.16,5.26v10a5,5,0,0,0,5,5h10v-6.42A7.5,7.5,0,0,0,937.68,811.89Z"/><path class="cls-7" d="M1010.77,819.16v-10a7.52,7.52,0,0,0-2.12-5.23l-10.11,8a7.56,7.56,0,0,0-2.82,5.88v6.42h10A5,5,0,0,0,1010.77,819.16Z"/><path class="cls-7" d="M968.49,819.16h-.75A2.13,2.13,0,0,1,965.6,817v-16.8h5V817A2.13,2.13,0,0,1,968.49,819.16Z"/><path class="cls-7" d="M968.11,800.22l-14.36-10.77a2,2,0,0,0-2.87.5L948,794.2l8.8,12.33a2,2,0,0,0,2.89.4Z"/><path class="cls-7" d="M968.11,800.22l14.37-10.77a2,2,0,0,1,2.87.5l2.84,4.25-8.81,12.33a2,2,0,0,1-2.88.4Z"/><path class="cls-8" d="M980.66,733.84c-12.55,12.55-37.17,2.51-37.17,22.59l1.56,14.79a10,10,0,0,0,5.12,7.86L964.46,787a7.54,7.54,0,0,0,7.31,0l14.29-7.94a10,10,0,0,0,5.12-7.86l1.8-17.57a27.64,27.64,0,0,0,.11-3.75C992.15,743.51,983.17,738.86,980.66,733.84Z"/><path class="cls-4" d="M943.49,756.43l1.56,14.79a10,10,0,0,0,5.12,7.86L964.46,787a7.46,7.46,0,0,0,5.11.76h0s-7.21-2.18-11.49-13.79c-1.32-3.55-3.14-22.37-1.57-24.67,3.1-4.55,20.39-5,25.49-13.46-.25-.31-.48-.62-.69-.94l-.06-.07a10.57,10.57,0,0,1-.59-1C968.11,746.39,943.49,736.35,943.49,756.43Z"/><path class="cls-7" d="M986.43,819.16h-6.52a4.27,4.27,0,0,0-4.27,4.27v.75H990.7v-.75A4.27,4.27,0,0,0,986.43,819.16Z"/><polygon class="cls-4" points="1110.19 791.59 1110.19 777.67 1074.39 777.67 1074.39 791.59 1092.29 807.5 1110.19 791.59"/><path class="cls-12" d="M1137.87,798.1l-24.61-5.79a3.64,3.64,0,0,1-1-.41l-19.93,11.62-19.16-12.19a3.91,3.91,0,0,1-1.81,1l-24.61,5.79a8,8,0,0,0-6.13,7.75v15.57a4,4,0,0,0,4,4H1140a4,4,0,0,0,4-4V805.85A8,8,0,0,0,1137.87,798.1Z"/><path class="cls-6" d="M1074.39,777.67v14.69c22.55,8.12,35.8-12.21,35.8-12.21v-2.48Z"/><path class="cls-8" d="M1066.43,731.92l1.74,38.13a11.9,11.9,0,0,0,4.76,9l8.22,6.17a11.94,11.94,0,0,0,7.16,2.38h8a11.94,11.94,0,0,0,7.16-2.38l8.22-6.17a11.93,11.93,0,0,0,4.76-9l1.73-38.13Z"/><path class="cls-4" d="M1086.32,739.88c8,0,19.89-2,22.72-8h-42.61l1.74,38.13a11.9,11.9,0,0,0,4.76,9l8.22,6.17a11.94,11.94,0,0,0,7.16,2.38h4c-4,0-11.94-8-11.94-17.9V745.85C1080.35,743.86,1082.34,739.88,1086.32,739.88Z"/><path class="cls-13" d="M1129.4,812.49l12.89-11.57a7.91,7.91,0,0,1,1.71,4.93v15.57a4,4,0,0,1-4,4H1126.1v-5.51A10,10,0,0,1,1129.4,812.49Z"/><path class="cls-13" d="M1055.18,812.49l-12.89-11.57a7.91,7.91,0,0,0-1.71,4.93v15.57a4,4,0,0,0,4,4h13.93v-5.51A10,10,0,0,0,1055.18,812.49Z"/><polygon class="cls-13" points="1097.26 825.4 1087.32 825.4 1088.56 807.5 1096.02 807.5 1097.26 825.4"/><path class="cls-14" d="M1097.26,803.52h-9.94v1.15a4.81,4.81,0,0,0,4.81,4.82h.31a4.82,4.82,0,0,0,4.82-4.82v-1.15Z"/><path class="cls-13" d="M1074.11,787.16l18.18,16.36a68.83,68.83,0,0,0-11.38,7.75,2.55,2.55,0,0,1-4-.89l-8.54-18.79,2.7-4.05A2,2,0,0,1,1074.11,787.16Z"/><path class="cls-13" d="M1110.47,787.16l-18.18,16.36a68.55,68.55,0,0,1,11.37,7.75,2.55,2.55,0,0,0,3.95-.89l8.55-18.79-2.71-4.05A2,2,0,0,0,1110.47,787.16Z"/><path class="cls-3" d="M1104.35,718.75l1.86,13.17c8.51,1.71,9.74,15.06,9.92,18.88a3.94,3.94,0,0,0,.62,1.94l3.25,5s-1.11-8.33,4-13.92C1124,743.86,1125.73,710.79,1104.35,718.75Z"/><path class="cls-8" d="M1122,756.93l-2.25,9a2.38,2.38,0,0,1-2.32,1.81h0a2.39,2.39,0,0,1-2.37-2.09l-1.15-9.19a4.12,4.12,0,0,1,4.09-4.63h0A4.12,4.12,0,0,1,1122,756.93Z"/><path class="cls-1" d="M1068.34,715.18l2.94,2c-13.3,9.82-10.81,26.67-10.81,26.67,4,4,4,13.92,4,13.92l4-4s-1.53-11.49,6-15.91c7-4.1,13-2,19.27-2,16.65,0,21.31-6.28,20.51-13.92-.42-4-6.47-12.2-21.88-11.93C1086.07,710.15,1074.39,712,1068.34,715.18Z"/><path class="cls-2" d="M1067.18,734.16s-2.11-8.33,4.1-17c-13.3,9.82-10.81,26.67-10.81,26.67,4,4,4,13.92,4,13.92l4-4s-1.53-11.49,6-15.91c7-4.1,13-2,19.27-2a49.05,49.05,0,0,0,7.17-.49C1088,735.84,1080.44,726.12,1067.18,734.16Z"/><path class="cls-4" d="M1062.58,756.93l2.25,9a2.38,2.38,0,0,0,2.32,1.81h0a2.39,2.39,0,0,0,2.37-2.09l1.15-9.19a4.12,4.12,0,0,0-4.09-4.63h0A4.12,4.12,0,0,0,1062.58,756.93Z"/><path class="cls-13" d="M1116.16,821.42h-10a4,4,0,0,0-4,4h17.9A4,4,0,0,0,1116.16,821.42Z"/><path class="cls-15" d="M806.2,799.36l-25.43-6a4,4,0,0,1-1.07-.43l-20.6,12-19.8-12.6a4.11,4.11,0,0,1-1.87,1l-25.43,6a8.21,8.21,0,0,0-6.34,8v16.1a4.11,4.11,0,0,0,4.11,4.11h98.66a4.11,4.11,0,0,0,4.11-4.11v-16.1A8.21,8.21,0,0,0,806.2,799.36Z"/><path class="cls-16" d="M720.75,814.23l-13.32-12a8.17,8.17,0,0,0-1.77,5.09v16.1a4.11,4.11,0,0,0,4.11,4.11h14.39v-5.69A10.28,10.28,0,0,0,720.75,814.23Z"/><path class="cls-16" d="M797.45,814.23l13.32-12a8.17,8.17,0,0,1,1.77,5.09v16.1a4.11,4.11,0,0,1-4.11,4.11H794v-5.69A10.28,10.28,0,0,1,797.45,814.23Z"/><polygon class="cls-13" points="764.24 827.57 753.96 827.57 755.25 809.07 762.96 809.07 764.24 827.57"/><path class="cls-14" d="M764.24,805H754v3.87a2.3,2.3,0,0,0,2.3,2.3h5.68a2.3,2.3,0,0,0,2.3-2.3V805Z"/><polygon class="cls-4" points="776.7 789.44 776.7 775.85 741.77 775.85 741.77 789.44 759.24 804.96 776.7 789.44"/><path class="cls-6" d="M741.77,775.85v14.33c22,7.93,34.93-11.91,34.93-11.91v-2.42Z"/><path class="cls-8" d="M734,731.22l1.69,37.2a11.64,11.64,0,0,0,4.65,8.79l8,6a11.68,11.68,0,0,0,7,2.33h7.76a11.62,11.62,0,0,0,7-2.33l8-6a11.66,11.66,0,0,0,4.64-8.79l1.69-37.2Z"/><path class="cls-4" d="M753.42,739c7.76,0,19.4-1.94,22.16-7.76H734l1.69,37.2a11.64,11.64,0,0,0,4.65,8.79l8,6a11.68,11.68,0,0,0,7,2.33h3.88c-3.88,0-11.65-7.77-11.65-17.47V744.8C747.6,742.86,749.54,739,753.42,739Z"/><path class="cls-3" d="M771,718.37l1.82,12.85c8.31,1.66,9.5,14.7,9.67,18.42a3.86,3.86,0,0,0,.62,1.89l3.17,4.92s-1.09-8.13,3.88-13.58C790.16,742.86,791.86,710.6,771,718.37Z"/><path class="cls-8" d="M788.22,755.62,786,764.38a2.33,2.33,0,0,1-2.26,1.77h0a2.34,2.34,0,0,1-2.32-2l-1.12-9a4,4,0,0,1,4-4.51h0A4,4,0,0,1,788.22,755.62Z"/><path class="cls-1" d="M735.87,714.89l2.87,2c-13,9.58-10.55,26-10.55,26,3.88,3.89,3.88,13.59,3.88,13.59l3.88-3.88s-1.5-11.21,5.82-15.53c6.8-4,12.74-1.94,18.8-1.94,16.25,0,20.8-6.12,20-13.58-.4-3.86-6.31-11.9-21.34-11.64C753.17,710,741.77,711.82,735.87,714.89Z"/><path class="cls-2" d="M734.74,733.41s-2.06-8.13,4-16.56c-13,9.58-10.55,26-10.55,26,3.88,3.89,3.88,13.59,3.88,13.59l3.88-3.88s-1.5-11.21,5.82-15.53c6.8-4,12.74-1.94,18.8-1.94a46.73,46.73,0,0,0,7-.48C755.05,735,747.68,725.56,734.74,733.41Z"/><path class="cls-4" d="M730.25,755.62l2.19,8.76a2.34,2.34,0,0,0,2.27,1.77h0a2.33,2.33,0,0,0,2.31-2l1.12-9a4,4,0,0,0-4-4.51h0A4,4,0,0,0,730.25,755.62Z"/><path class="cls-16" d="M740.31,788.05,759.1,805a71.14,71.14,0,0,0-11.75,8,2.65,2.65,0,0,1-4.09-.92l-8.83-19.42,2.8-4.19A2.05,2.05,0,0,1,740.31,788.05Z"/><path class="cls-16" d="M777.89,788.05,759.1,805a71.42,71.42,0,0,1,11.76,8,2.64,2.64,0,0,0,4.08-.92l8.83-19.42-2.8-4.19A2.05,2.05,0,0,0,777.89,788.05Z"/><path class="cls-16" d="M785.82,823.46H771.43a2.05,2.05,0,0,0-2,2v2.06h18.5v-2.06A2.05,2.05,0,0,0,785.82,823.46Z"/><polygon class="cls-4" points="654.65 792.67 654.65 778.7 618.72 778.7 618.72 792.67 636.69 808.64 654.65 792.67"/><path class="cls-5" d="M682.42,799.21l-24.69-5.81a4,4,0,0,1-1-.42l-20,11.67-19.23-12.23a4,4,0,0,1-1.81,1L591,799.21A8,8,0,0,0,584.8,807v15.63a4,4,0,0,0,4,4h95.79a4,4,0,0,0,4-4V807A8,8,0,0,0,682.42,799.21Z"/><path class="cls-6" d="M618.72,778.7v14.74c22.63,8.15,35.93-12.25,35.93-12.25V778.7Z"/><path class="cls-8" d="M610.74,732.8l1.74,38.26a12,12,0,0,0,4.78,9l8.25,6.19a12,12,0,0,0,7.18,2.39h8a12,12,0,0,0,7.18-2.39l8.25-6.19a12,12,0,0,0,4.78-9l1.74-38.26Z"/><path class="cls-4" d="M630.7,740.78c8,0,20-2,22.8-8H610.74l1.74,38.26a12,12,0,0,0,4.78,9l8.25,6.19a12,12,0,0,0,7.18,2.39h4c-4,0-12-8-12-18v-24C624.71,744.77,626.71,740.78,630.7,740.78Z"/><path class="cls-7" d="M673.92,813.65,686.86,802a8,8,0,0,1,1.72,5v15.63a4,4,0,0,1-4,4h-14v-5.53A10,10,0,0,1,673.92,813.65Z"/><path class="cls-7" d="M599.45,813.65,586.52,802a7.93,7.93,0,0,0-1.72,5v15.63a4,4,0,0,0,4,4h14v-5.53A10,10,0,0,0,599.45,813.65Z"/><polygon class="cls-13" points="641.68 826.6 631.7 826.6 632.94 808.64 640.43 808.64 641.68 826.6"/><path class="cls-14" d="M641.68,804.65h-10v1.15a4.83,4.83,0,0,0,4.83,4.83h.31a4.84,4.84,0,0,0,4.84-4.83v-1.15Z"/><path class="cls-7" d="M618.44,788.23l18.25,16.42a69.24,69.24,0,0,0-11.42,7.77,2.55,2.55,0,0,1-4-.89l-8.57-18.86,2.71-4.06A2,2,0,0,1,618.44,788.23Z"/><path class="cls-7" d="M654.93,788.23l-18.24,16.42a69,69,0,0,1,11.41,7.77,2.56,2.56,0,0,0,4-.89l8.57-18.86-2.72-4.06A2,2,0,0,0,654.93,788.23Z"/><path class="cls-3" d="M648.79,719.58l1.87,13.22c8.54,1.71,9.77,15.11,10,18.94a3.88,3.88,0,0,0,.63,2l3.26,5s-1.12-8.35,4-14C668.49,744.77,670.24,711.59,648.79,719.58Z"/><path class="cls-8" d="M666.5,757.89l-2.26,9a2.39,2.39,0,0,1-2.32,1.81h0a2.41,2.41,0,0,1-2.39-2.1l-1.15-9.22a4.13,4.13,0,0,1,4.1-4.64h0A4.13,4.13,0,0,1,666.5,757.89Z"/><path class="cls-1" d="M612.65,716l3,2c-13.35,9.85-10.86,26.75-10.86,26.75,4,4,4,14,4,14l4-4s-1.54-11.53,6-16c7-4.12,13.1-2,19.34-2,16.71,0,21.39-6.3,20.58-14-.42-4-6.49-12.24-21.95-12C630.45,711,618.72,712.84,612.65,716Z"/><path class="cls-2" d="M611.49,735s-2.12-8.35,4.12-17c-13.35,9.85-10.86,26.75-10.86,26.75,4,4,4,14,4,14l4-4s-1.54-11.53,6-16c7-4.12,13.1-2,19.34-2a49.38,49.38,0,0,0,7.2-.49C632.38,736.73,624.79,727,611.49,735Z"/><path class="cls-4" d="M606.88,757.89l2.25,9a2.41,2.41,0,0,0,2.33,1.81h0a2.4,2.4,0,0,0,2.38-2.1L615,757.4a4.13,4.13,0,0,0-4.1-4.64h0A4.12,4.12,0,0,0,606.88,757.89Z"/><path class="cls-7" d="M660.64,822.61h-10a4,4,0,0,0-4,4h18A4,4,0,0,0,660.64,822.61Z"/></svg>