<?xml version="1.0" encoding="UTF-8" standalone="no"?>
<svg
   xmlns:dc="http://purl.org/dc/elements/1.1/"
   xmlns:cc="http://creativecommons.org/ns#"
   xmlns:rdf="http://www.w3.org/1999/02/22-rdf-syntax-ns#"
   xmlns:svg="http://www.w3.org/2000/svg"
   xmlns="http://www.w3.org/2000/svg"
   viewBox="0 0 1122.5601 793.76001"
   height="793.76001"
   width="1122.5601"
   xml:space="preserve"
   id="svg2"
   version="1.1"><metadata
     id="metadata8"><rdf:RDF><cc:Work
         rdf:about=""><dc:format>image/svg+xml</dc:format><dc:type
           rdf:resource="http://purl.org/dc/dcmitype/StillImage" /></cc:Work></rdf:RDF></metadata><defs
     id="defs6"><clipPath
       id="clipPath18"
       clipPathUnits="userSpaceOnUse"><path
         style="clip-rule:evenodd"
         id="path16"
         d="M 1.2546e-5,0 H 841.92001 V 595.32 H 1.2546e-5 Z" /></clipPath><clipPath
       id="clipPath26"
       clipPathUnits="userSpaceOnUse"><path
         style="clip-rule:evenodd"
         id="path24"
         d="M 1.2546e-5,0 H 841.92001 V 595.32 H 1.2546e-5 Z" /></clipPath><clipPath
       id="clipPath46"
       clipPathUnits="userSpaceOnUse"><path
         style="clip-rule:evenodd"
         id="path44"
         d="M 70.8,113.52 H 771 v 411 H 70.8 Z" /></clipPath><clipPath
       id="clipPath58"
       clipPathUnits="userSpaceOnUse"><path
         style="clip-rule:evenodd"
         id="path56"
         d="M 70.8,113.52 H 771 v 411 H 70.8 Z" /></clipPath><clipPath
       id="clipPath70"
       clipPathUnits="userSpaceOnUse"><path
         style="clip-rule:evenodd"
         id="path68"
         d="M 70.8,113.52 H 771 v 411 H 70.8 Z" /></clipPath><clipPath
       id="clipPath82"
       clipPathUnits="userSpaceOnUse"><path
         style="clip-rule:evenodd"
         id="path80"
         d="M 70.8,113.52 H 771 v 411 H 70.8 Z" /></clipPath><clipPath
       id="clipPath94"
       clipPathUnits="userSpaceOnUse"><path
         style="clip-rule:evenodd"
         id="path92"
         d="M 70.8,113.52 H 771 v 411 H 70.8 Z" /></clipPath><clipPath
       id="clipPath106"
       clipPathUnits="userSpaceOnUse"><path
         style="clip-rule:evenodd"
         id="path104"
         d="M 70.8,113.52 H 771 v 411 H 70.8 Z" /></clipPath><clipPath
       id="clipPath118"
       clipPathUnits="userSpaceOnUse"><path
         style="clip-rule:evenodd"
         id="path116"
         d="M 70.8,113.52 H 771 v 411 H 70.8 Z" /></clipPath><clipPath
       id="clipPath130"
       clipPathUnits="userSpaceOnUse"><path
         style="clip-rule:evenodd"
         id="path128"
         d="M 70.8,113.52 H 771 v 411 H 70.8 Z" /></clipPath><clipPath
       id="clipPath142"
       clipPathUnits="userSpaceOnUse"><path
         style="clip-rule:evenodd"
         id="path140"
         d="M 70.8,113.52 H 771 v 411 H 70.8 Z" /></clipPath><clipPath
       id="clipPath154"
       clipPathUnits="userSpaceOnUse"><path
         style="clip-rule:evenodd"
         id="path152"
         d="M 70.8,113.52 H 771 v 411 H 70.8 Z" /></clipPath><clipPath
       id="clipPath166"
       clipPathUnits="userSpaceOnUse"><path
         style="clip-rule:evenodd"
         id="path164"
         d="M 70.8,113.52 H 771 v 411 H 70.8 Z" /></clipPath><clipPath
       id="clipPath178"
       clipPathUnits="userSpaceOnUse"><path
         style="clip-rule:evenodd"
         id="path176"
         d="M 70.8,113.52 H 771 v 411 H 70.8 Z" /></clipPath><clipPath
       id="clipPath190"
       clipPathUnits="userSpaceOnUse"><path
         style="clip-rule:evenodd"
         id="path188"
         d="M 70.8,113.52 H 771 v 411 H 70.8 Z" /></clipPath><clipPath
       id="clipPath202"
       clipPathUnits="userSpaceOnUse"><path
         style="clip-rule:evenodd"
         id="path200"
         d="M 70.8,113.52 H 771 v 411 H 70.8 Z" /></clipPath><clipPath
       id="clipPath214"
       clipPathUnits="userSpaceOnUse"><path
         style="clip-rule:evenodd"
         id="path212"
         d="M 70.8,113.52 H 771 v 411 H 70.8 Z" /></clipPath><clipPath
       id="clipPath226"
       clipPathUnits="userSpaceOnUse"><path
         style="clip-rule:evenodd"
         id="path224"
         d="M 70.8,113.52 H 771 v 411 H 70.8 Z" /></clipPath><clipPath
       id="clipPath238"
       clipPathUnits="userSpaceOnUse"><path
         style="clip-rule:evenodd"
         id="path236"
         d="M 70.8,113.52 H 771 v 411 H 70.8 Z" /></clipPath><clipPath
       id="clipPath250"
       clipPathUnits="userSpaceOnUse"><path
         style="clip-rule:evenodd"
         id="path248"
         d="M 70.8,113.52 H 771 v 411 H 70.8 Z" /></clipPath><clipPath
       id="clipPath262"
       clipPathUnits="userSpaceOnUse"><path
         style="clip-rule:evenodd"
         id="path260"
         d="M 70.8,113.52 H 771 v 411 H 70.8 Z" /></clipPath><clipPath
       id="clipPath274"
       clipPathUnits="userSpaceOnUse"><path
         style="clip-rule:evenodd"
         id="path272"
         d="M 70.8,113.52 H 771 v 411 H 70.8 Z" /></clipPath><clipPath
       id="clipPath286"
       clipPathUnits="userSpaceOnUse"><path
         style="clip-rule:evenodd"
         id="path284"
         d="M 70.8,113.52 H 771 v 411 H 70.8 Z" /></clipPath><clipPath
       id="clipPath298"
       clipPathUnits="userSpaceOnUse"><path
         style="clip-rule:evenodd"
         id="path296"
         d="M 70.8,113.52 H 771 v 411 H 70.8 Z" /></clipPath><clipPath
       id="clipPath310"
       clipPathUnits="userSpaceOnUse"><path
         style="clip-rule:evenodd"
         id="path308"
         d="M 70.8,113.52 H 771 v 411 H 70.8 Z" /></clipPath><clipPath
       id="clipPath322"
       clipPathUnits="userSpaceOnUse"><path
         style="clip-rule:evenodd"
         id="path320"
         d="M 70.8,113.52 H 771 v 411 H 70.8 Z" /></clipPath><clipPath
       id="clipPath334"
       clipPathUnits="userSpaceOnUse"><path
         style="clip-rule:evenodd"
         id="path332"
         d="M 70.8,113.52 H 771 v 411 H 70.8 Z" /></clipPath><clipPath
       id="clipPath346"
       clipPathUnits="userSpaceOnUse"><path
         style="clip-rule:evenodd"
         id="path344"
         d="M 70.8,113.52 H 771 v 411 H 70.8 Z" /></clipPath><clipPath
       id="clipPath358"
       clipPathUnits="userSpaceOnUse"><path
         style="clip-rule:evenodd"
         id="path356"
         d="M 70.8,113.52 H 771 v 411 H 70.8 Z" /></clipPath><clipPath
       id="clipPath370"
       clipPathUnits="userSpaceOnUse"><path
         style="clip-rule:evenodd"
         id="path368"
         d="M 70.8,113.52 H 771 v 411 H 70.8 Z" /></clipPath><clipPath
       id="clipPath382"
       clipPathUnits="userSpaceOnUse"><path
         style="clip-rule:evenodd"
         id="path380"
         d="M 70.8,113.52 H 771 v 411 H 70.8 Z" /></clipPath><clipPath
       id="clipPath394"
       clipPathUnits="userSpaceOnUse"><path
         style="clip-rule:evenodd"
         id="path392"
         d="M 70.8,113.52 H 771 v 411 H 70.8 Z" /></clipPath><clipPath
       id="clipPath406"
       clipPathUnits="userSpaceOnUse"><path
         style="clip-rule:evenodd"
         id="path404"
         d="M 70.8,113.52 H 771 v 411 H 70.8 Z" /></clipPath><clipPath
       id="clipPath418"
       clipPathUnits="userSpaceOnUse"><path
         style="clip-rule:evenodd"
         id="path416"
         d="M 70.8,113.52 H 771 v 411 H 70.8 Z" /></clipPath><clipPath
       id="clipPath430"
       clipPathUnits="userSpaceOnUse"><path
         style="clip-rule:evenodd"
         id="path428"
         d="M 70.8,113.52 H 771 v 411 H 70.8 Z" /></clipPath><clipPath
       id="clipPath442"
       clipPathUnits="userSpaceOnUse"><path
         style="clip-rule:evenodd"
         id="path440"
         d="M 70.8,113.52 H 771 v 411 H 70.8 Z" /></clipPath><clipPath
       id="clipPath454"
       clipPathUnits="userSpaceOnUse"><path
         style="clip-rule:evenodd"
         id="path452"
         d="M 70.8,113.52 H 771 v 411 H 70.8 Z" /></clipPath><clipPath
       id="clipPath466"
       clipPathUnits="userSpaceOnUse"><path
         style="clip-rule:evenodd"
         id="path464"
         d="M 70.8,113.52 H 771 v 411 H 70.8 Z" /></clipPath><clipPath
       id="clipPath478"
       clipPathUnits="userSpaceOnUse"><path
         style="clip-rule:evenodd"
         id="path476"
         d="M 70.8,113.52 H 771 v 411 H 70.8 Z" /></clipPath><clipPath
       id="clipPath490"
       clipPathUnits="userSpaceOnUse"><path
         style="clip-rule:evenodd"
         id="path488"
         d="M 70.8,113.52 H 771 v 411 H 70.8 Z" /></clipPath><clipPath
       id="clipPath502"
       clipPathUnits="userSpaceOnUse"><path
         style="clip-rule:evenodd"
         id="path500"
         d="M 70.8,113.52 H 771 v 411 H 70.8 Z" /></clipPath><clipPath
       id="clipPath514"
       clipPathUnits="userSpaceOnUse"><path
         style="clip-rule:evenodd"
         id="path512"
         d="M 70.8,113.52 H 771 v 411 H 70.8 Z" /></clipPath><clipPath
       id="clipPath526"
       clipPathUnits="userSpaceOnUse"><path
         style="clip-rule:evenodd"
         id="path524"
         d="M 70.8,113.52 H 771 v 411 H 70.8 Z" /></clipPath><clipPath
       id="clipPath538"
       clipPathUnits="userSpaceOnUse"><path
         style="clip-rule:evenodd"
         id="path536"
         d="M 70.8,113.52 H 771 v 411 H 70.8 Z" /></clipPath><clipPath
       id="clipPath550"
       clipPathUnits="userSpaceOnUse"><path
         style="clip-rule:evenodd"
         id="path548"
         d="M 70.8,113.52 H 771 v 411 H 70.8 Z" /></clipPath><clipPath
       id="clipPath562"
       clipPathUnits="userSpaceOnUse"><path
         style="clip-rule:evenodd"
         id="path560"
         d="M 70.8,113.52 H 771 v 411 H 70.8 Z" /></clipPath><clipPath
       id="clipPath574"
       clipPathUnits="userSpaceOnUse"><path
         style="clip-rule:evenodd"
         id="path572"
         d="M 70.8,113.52 H 771 v 411 H 70.8 Z" /></clipPath><clipPath
       id="clipPath586"
       clipPathUnits="userSpaceOnUse"><path
         style="clip-rule:evenodd"
         id="path584"
         d="M 70.8,113.52 H 771 v 411 H 70.8 Z" /></clipPath><clipPath
       id="clipPath598"
       clipPathUnits="userSpaceOnUse"><path
         style="clip-rule:evenodd"
         id="path596"
         d="M 70.8,113.52 H 771 v 411 H 70.8 Z" /></clipPath><clipPath
       id="clipPath610"
       clipPathUnits="userSpaceOnUse"><path
         style="clip-rule:evenodd"
         id="path608"
         d="M 70.8,113.52 H 771 v 411 H 70.8 Z" /></clipPath><clipPath
       id="clipPath622"
       clipPathUnits="userSpaceOnUse"><path
         style="clip-rule:evenodd"
         id="path620"
         d="M 70.8,113.52 H 771 v 411 H 70.8 Z" /></clipPath><clipPath
       id="clipPath634"
       clipPathUnits="userSpaceOnUse"><path
         style="clip-rule:evenodd"
         id="path632"
         d="M 70.8,113.52 H 771 v 411 H 70.8 Z" /></clipPath><clipPath
       id="clipPath646"
       clipPathUnits="userSpaceOnUse"><path
         style="clip-rule:evenodd"
         id="path644"
         d="M 70.8,113.52 H 771 v 411 H 70.8 Z" /></clipPath><clipPath
       id="clipPath658"
       clipPathUnits="userSpaceOnUse"><path
         style="clip-rule:evenodd"
         id="path656"
         d="M 70.8,113.52 H 771 v 411 H 70.8 Z" /></clipPath><clipPath
       id="clipPath670"
       clipPathUnits="userSpaceOnUse"><path
         style="clip-rule:evenodd"
         id="path668"
         d="M 70.8,113.52 H 771 v 411 H 70.8 Z" /></clipPath><clipPath
       id="clipPath682"
       clipPathUnits="userSpaceOnUse"><path
         style="clip-rule:evenodd"
         id="path680"
         d="M 70.8,113.52 H 771 v 411 H 70.8 Z" /></clipPath><clipPath
       id="clipPath694"
       clipPathUnits="userSpaceOnUse"><path
         style="clip-rule:evenodd"
         id="path692"
         d="M 70.8,113.52 H 771 v 411 H 70.8 Z" /></clipPath><clipPath
       id="clipPath706"
       clipPathUnits="userSpaceOnUse"><path
         style="clip-rule:evenodd"
         id="path704"
         d="M 70.8,113.52 H 771 v 411 H 70.8 Z" /></clipPath><clipPath
       id="clipPath718"
       clipPathUnits="userSpaceOnUse"><path
         style="clip-rule:evenodd"
         id="path716"
         d="M 70.8,113.52 H 771 v 411 H 70.8 Z" /></clipPath><clipPath
       id="clipPath730"
       clipPathUnits="userSpaceOnUse"><path
         style="clip-rule:evenodd"
         id="path728"
         d="M 70.8,113.52 H 771 v 411 H 70.8 Z" /></clipPath><clipPath
       id="clipPath742"
       clipPathUnits="userSpaceOnUse"><path
         style="clip-rule:evenodd"
         id="path740"
         d="M 70.8,113.52 H 771 v 411 H 70.8 Z" /></clipPath><clipPath
       id="clipPath754"
       clipPathUnits="userSpaceOnUse"><path
         style="clip-rule:evenodd"
         id="path752"
         d="M 70.8,113.52 H 771 v 411 H 70.8 Z" /></clipPath><clipPath
       id="clipPath766"
       clipPathUnits="userSpaceOnUse"><path
         style="clip-rule:evenodd"
         id="path764"
         d="M 70.8,113.52 H 771 v 411 H 70.8 Z" /></clipPath><clipPath
       id="clipPath778"
       clipPathUnits="userSpaceOnUse"><path
         style="clip-rule:evenodd"
         id="path776"
         d="M 70.8,113.52 H 771 v 411 H 70.8 Z" /></clipPath><clipPath
       id="clipPath792"
       clipPathUnits="userSpaceOnUse"><path
         style="clip-rule:evenodd"
         id="path790"
         d="M 70.8,113.52 H 771 v 411 H 70.8 Z" /></clipPath><clipPath
       id="clipPath806"
       clipPathUnits="userSpaceOnUse"><path
         style="clip-rule:evenodd"
         id="path804"
         d="M 70.8,113.52 H 771 v 411 H 70.8 Z" /></clipPath><clipPath
       id="clipPath820"
       clipPathUnits="userSpaceOnUse"><path
         style="clip-rule:evenodd"
         id="path818"
         d="M 70.8,113.52 H 771 v 411 H 70.8 Z" /></clipPath><clipPath
       id="clipPath832"
       clipPathUnits="userSpaceOnUse"><path
         style="clip-rule:evenodd"
         id="path830"
         d="M 1.2546e-5,102.96 H 841.92001 V 524.52 H 1.2546e-5 Z" /></clipPath></defs><g
     transform="matrix(1.3333333,0,0,-1.3333333,0,793.76)"
     id="g10"><g
       id="g12"><g
         clip-path="url(#clipPath18)"
         id="g14" /></g><g
       id="g20"><g
         clip-path="url(#clipPath26)"
         id="g22" /></g><path
       id="path28"
       style="fill:#ffffff;fill-opacity:1;fill-rule:evenodd;stroke:none"
       d="m 70.85,113.42 h 700.2 V 524.47 H 70.85 Z" /><path
       id="path30"
       style="fill:none;stroke:#d9d9d9;stroke-width:0.75;stroke-linecap:butt;stroke-linejoin:round;stroke-miterlimit:10;stroke-dasharray:none;stroke-opacity:1"
       d="M 94.819,213.36 H 760.05 M 94.819,267.12 H 760.05 M 94.819,321 H 760.05 M 94.819,374.88 H 760.05 M 94.819,428.64 H 760.05 M 94.819,482.49 H 760.05" /><path
       id="path32"
       style="fill:none;stroke:#d9d9d9;stroke-width:0.75;stroke-linecap:butt;stroke-linejoin:round;stroke-miterlimit:10;stroke-dasharray:none;stroke-opacity:1"
       d="M 94.819,159.49 H 760.05" /><path
       id="path34"
       style="fill:none;stroke:#4472c4;stroke-width:2.25;stroke-linecap:round;stroke-linejoin:round;stroke-miterlimit:10;stroke-dasharray:none;stroke-opacity:1"
       d="M 101.22,347.91 114,321 l 12.84,26.91 h 12.72 12.84 12.84 12.72 12.84 12.72 12.84 12.84 12.72 12.84 l 12.72,-26.91 12.84,26.91 h 12.84 12.72 12.84 12.72 l 12.84,-53.79 12.84,53.79 h 12.72 12.84 12.72 12.84 l 12.84,-80.79 12.72,80.79 h 12.84 12.72 12.84 12.84 l 12.72,-80.79 12.84,80.79 h 12.84 12.72 12.84 12.72 l 12.84,-107.67 12.84,107.67 h 12.72 12.84 12.72 12.84 l 12.84,-26.91 12.72,26.91 h 12.84 12.72 12.84 12.84 12.72 12.84 12.77" /><path
       id="path36"
       style="fill:none;stroke:#ed7d31;stroke-width:2.25;stroke-linecap:round;stroke-linejoin:round;stroke-miterlimit:10;stroke-dasharray:none;stroke-opacity:1"
       d="m 101.22,347.88 h 12.78 12.84 12.72 12.84 12.84 12.72 12.84 12.72 l 12.84,27 12.84,-27 h 12.72 12.84 12.72 12.84 l 12.84,27 12.72,-27 h 12.84 12.72 12.84 12.84 12.72 12.84 12.72 12.84 12.84 12.72 l 12.84,-26.89 12.72,26.89 h 12.84 12.84 12.72 12.84 l 12.84,53.88 12.72,-53.88 h 12.84 12.72 12.84 12.84 l 12.72,107.7 12.84,-107.7 h 12.72 12.84 12.84 12.72 l 12.84,27 12.72,-27 h 12.84 12.84 12.72 12.84 12.77" /><path
       id="path38"
       style="fill:none;stroke:#a5a5a5;stroke-width:2.25;stroke-linecap:round;stroke-linejoin:round;stroke-miterlimit:10;stroke-dasharray:none;stroke-opacity:1"
       d="m 101.22,347.88 h 12.78 12.84 12.72 12.84 l 12.84,-53.76 12.72,53.76 h 12.84 12.72 12.84 12.84 l 12.72,53.88 12.84,-53.88 h 12.72 12.84 12.84 12.72 l 12.84,-80.72 12.72,80.72 h 12.84 12.84 12.72 12.84 l 12.72,80.78 12.84,-80.78 h 12.84 12.72 12.84 12.72 l 12.84,-53.76 12.84,53.76 h 12.72 12.84 12.84 12.72 l 12.84,53.88 12.72,-53.88 h 12.84 12.84 12.72 12.84 l 12.72,27 12.84,-27 h 12.84 12.72 12.84 12.72 12.84 12.84 12.72 12.84 12.77" /><g
       id="g40"><g
         clip-path="url(#clipPath46)"
         id="g42"><text
           id="text50"
           style="font-variant:normal;font-weight:normal;font-size:9px;font-family:Calibri;-inkscape-font-specification:Calibri;writing-mode:lr-tb;fill:#595959;fill-opacity:1;fill-rule:nonzero;stroke:none"
           transform="matrix(1,0,0,-1,77.352,156.89)"><tspan
             id="tspan48"
             y="0"
             x="0 4.5599999">13</tspan></text>
</g></g><g
       id="g52"><g
         clip-path="url(#clipPath58)"
         id="g54"><text
           id="text62"
           style="font-variant:normal;font-weight:normal;font-size:9px;font-family:Calibri;-inkscape-font-specification:Calibri;writing-mode:lr-tb;fill:#595959;fill-opacity:1;fill-rule:nonzero;stroke:none"
           transform="matrix(1,0,0,-1,77.352,210.72)"><tspan
             id="tspan60"
             y="0"
             x="0 4.5599999">15</tspan></text>
</g></g><g
       id="g64"><g
         clip-path="url(#clipPath70)"
         id="g66"><text
           id="text74"
           style="font-variant:normal;font-weight:normal;font-size:9px;font-family:Calibri;-inkscape-font-specification:Calibri;writing-mode:lr-tb;fill:#595959;fill-opacity:1;fill-rule:nonzero;stroke:none"
           transform="matrix(1,0,0,-1,77.352,264.58)"><tspan
             id="tspan72"
             y="0"
             x="0 4.5599999">17</tspan></text>
</g></g><g
       id="g76"><g
         clip-path="url(#clipPath82)"
         id="g78"><text
           id="text86"
           style="font-variant:normal;font-weight:normal;font-size:9px;font-family:Calibri;-inkscape-font-specification:Calibri;writing-mode:lr-tb;fill:#595959;fill-opacity:1;fill-rule:nonzero;stroke:none"
           transform="matrix(1,0,0,-1,77.352,318.41)"><tspan
             id="tspan84"
             y="0"
             x="0 4.5599999">19</tspan></text>
</g></g><g
       id="g88"><g
         clip-path="url(#clipPath94)"
         id="g90"><text
           id="text98"
           style="font-variant:normal;font-weight:normal;font-size:9px;font-family:Calibri;-inkscape-font-specification:Calibri;writing-mode:lr-tb;fill:#595959;fill-opacity:1;fill-rule:nonzero;stroke:none"
           transform="matrix(1,0,0,-1,77.352,372.26)"><tspan
             id="tspan96"
             y="0"
             x="0 4.5599999">21</tspan></text>
</g></g><g
       id="g100"><g
         clip-path="url(#clipPath106)"
         id="g102"><text
           id="text110"
           style="font-variant:normal;font-weight:normal;font-size:9px;font-family:Calibri;-inkscape-font-specification:Calibri;writing-mode:lr-tb;fill:#595959;fill-opacity:1;fill-rule:nonzero;stroke:none"
           transform="matrix(1,0,0,-1,77.352,426.1)"><tspan
             id="tspan108"
             y="0"
             x="0 4.5599999">23</tspan></text>
</g></g><g
       id="g112"><g
         clip-path="url(#clipPath118)"
         id="g114"><text
           id="text122"
           style="font-variant:normal;font-weight:normal;font-size:9px;font-family:Calibri;-inkscape-font-specification:Calibri;writing-mode:lr-tb;fill:#595959;fill-opacity:1;fill-rule:nonzero;stroke:none"
           transform="matrix(1,0,0,-1,77.352,479.95)"><tspan
             id="tspan120"
             y="0"
             x="0 4.5599999">25</tspan></text>
</g></g><g
       id="g124"><g
         clip-path="url(#clipPath130)"
         id="g126"><text
           id="text134"
           style="font-variant:normal;font-weight:normal;font-size:9px;font-family:Calibri;-inkscape-font-specification:Calibri;writing-mode:lr-tb;fill:#595959;fill-opacity:1;fill-rule:nonzero;stroke:none"
           transform="matrix(1,0,0,-1,98.952,145.18)"><tspan
             id="tspan132"
             y="0"
             x="0">1</tspan></text>
</g></g><g
       id="g136"><g
         clip-path="url(#clipPath142)"
         id="g138"><text
           id="text146"
           style="font-variant:normal;font-weight:normal;font-size:9px;font-family:Calibri;-inkscape-font-specification:Calibri;writing-mode:lr-tb;fill:#595959;fill-opacity:1;fill-rule:nonzero;stroke:none"
           transform="matrix(1,0,0,-1,111.74,145.18)"><tspan
             id="tspan144"
             y="0"
             x="0">2</tspan></text>
</g></g><g
       id="g148"><g
         clip-path="url(#clipPath154)"
         id="g150"><text
           id="text158"
           style="font-variant:normal;font-weight:normal;font-size:9px;font-family:Calibri;-inkscape-font-specification:Calibri;writing-mode:lr-tb;fill:#595959;fill-opacity:1;fill-rule:nonzero;stroke:none"
           transform="matrix(1,0,0,-1,124.54,145.18)"><tspan
             id="tspan156"
             y="0"
             x="0">3</tspan></text>
</g></g><g
       id="g160"><g
         clip-path="url(#clipPath166)"
         id="g162"><text
           id="text170"
           style="font-variant:normal;font-weight:normal;font-size:9px;font-family:Calibri;-inkscape-font-specification:Calibri;writing-mode:lr-tb;fill:#595959;fill-opacity:1;fill-rule:nonzero;stroke:none"
           transform="matrix(1,0,0,-1,137.33,145.18)"><tspan
             id="tspan168"
             y="0"
             x="0">4</tspan></text>
</g></g><g
       id="g172"><g
         clip-path="url(#clipPath178)"
         id="g174"><text
           id="text182"
           style="font-variant:normal;font-weight:normal;font-size:9px;font-family:Calibri;-inkscape-font-specification:Calibri;writing-mode:lr-tb;fill:#595959;fill-opacity:1;fill-rule:nonzero;stroke:none"
           transform="matrix(1,0,0,-1,150.12,145.18)"><tspan
             id="tspan180"
             y="0"
             x="0">5</tspan></text>
</g></g><g
       id="g184"><g
         clip-path="url(#clipPath190)"
         id="g186"><text
           id="text194"
           style="font-variant:normal;font-weight:normal;font-size:9px;font-family:Calibri;-inkscape-font-specification:Calibri;writing-mode:lr-tb;fill:#595959;fill-opacity:1;fill-rule:nonzero;stroke:none"
           transform="matrix(1,0,0,-1,162.91,145.18)"><tspan
             id="tspan192"
             y="0"
             x="0">6</tspan></text>
</g></g><g
       id="g196"><g
         clip-path="url(#clipPath202)"
         id="g198"><text
           id="text206"
           style="font-variant:normal;font-weight:normal;font-size:9px;font-family:Calibri;-inkscape-font-specification:Calibri;writing-mode:lr-tb;fill:#595959;fill-opacity:1;fill-rule:nonzero;stroke:none"
           transform="matrix(1,0,0,-1,175.73,145.18)"><tspan
             id="tspan204"
             y="0"
             x="0">7</tspan></text>
</g></g><g
       id="g208"><g
         clip-path="url(#clipPath214)"
         id="g210"><text
           id="text218"
           style="font-variant:normal;font-weight:normal;font-size:9px;font-family:Calibri;-inkscape-font-specification:Calibri;writing-mode:lr-tb;fill:#595959;fill-opacity:1;fill-rule:nonzero;stroke:none"
           transform="matrix(1,0,0,-1,188.52,145.18)"><tspan
             id="tspan216"
             y="0"
             x="0">8</tspan></text>
</g></g><g
       id="g220"><g
         clip-path="url(#clipPath226)"
         id="g222"><text
           id="text230"
           style="font-variant:normal;font-weight:normal;font-size:9px;font-family:Calibri;-inkscape-font-specification:Calibri;writing-mode:lr-tb;fill:#595959;fill-opacity:1;fill-rule:nonzero;stroke:none"
           transform="matrix(1,0,0,-1,201.31,145.18)"><tspan
             id="tspan228"
             y="0"
             x="0">9</tspan></text>
</g></g><g
       id="g232"><g
         clip-path="url(#clipPath238)"
         id="g234"><text
           id="text242"
           style="font-variant:normal;font-weight:normal;font-size:9px;font-family:Calibri;-inkscape-font-specification:Calibri;writing-mode:lr-tb;fill:#595959;fill-opacity:1;fill-rule:nonzero;stroke:none"
           transform="matrix(1,0,0,-1,211.82,145.18)"><tspan
             id="tspan240"
             y="0"
             x="0 4.5599999">10</tspan></text>
</g></g><g
       id="g244"><g
         clip-path="url(#clipPath250)"
         id="g246"><text
           id="text254"
           style="font-variant:normal;font-weight:normal;font-size:9px;font-family:Calibri;-inkscape-font-specification:Calibri;writing-mode:lr-tb;fill:#595959;fill-opacity:1;fill-rule:nonzero;stroke:none"
           transform="matrix(1,0,0,-1,224.62,145.18)"><tspan
             id="tspan252"
             y="0"
             x="0 4.5599999">11</tspan></text>
</g></g><g
       id="g256"><g
         clip-path="url(#clipPath262)"
         id="g258"><text
           id="text266"
           style="font-variant:normal;font-weight:normal;font-size:9px;font-family:Calibri;-inkscape-font-specification:Calibri;writing-mode:lr-tb;fill:#595959;fill-opacity:1;fill-rule:nonzero;stroke:none"
           transform="matrix(1,0,0,-1,237.41,145.18)"><tspan
             id="tspan264"
             y="0"
             x="0 4.5599999">12</tspan></text>
</g></g><g
       id="g268"><g
         clip-path="url(#clipPath274)"
         id="g270"><text
           id="text278"
           style="font-variant:normal;font-weight:normal;font-size:9px;font-family:Calibri;-inkscape-font-specification:Calibri;writing-mode:lr-tb;fill:#595959;fill-opacity:1;fill-rule:nonzero;stroke:none"
           transform="matrix(1,0,0,-1,250.2,145.18)"><tspan
             id="tspan276"
             y="0"
             x="0 4.5599999">13</tspan></text>
</g></g><g
       id="g280"><g
         clip-path="url(#clipPath286)"
         id="g282"><text
           id="text290"
           style="font-variant:normal;font-weight:normal;font-size:9px;font-family:Calibri;-inkscape-font-specification:Calibri;writing-mode:lr-tb;fill:#595959;fill-opacity:1;fill-rule:nonzero;stroke:none"
           transform="matrix(1,0,0,-1,262.99,145.18)"><tspan
             id="tspan288"
             y="0"
             x="0 4.5599999">14</tspan></text>
</g></g><g
       id="g292"><g
         clip-path="url(#clipPath298)"
         id="g294"><text
           id="text302"
           style="font-variant:normal;font-weight:normal;font-size:9px;font-family:Calibri;-inkscape-font-specification:Calibri;writing-mode:lr-tb;fill:#595959;fill-opacity:1;fill-rule:nonzero;stroke:none"
           transform="matrix(1,0,0,-1,275.78,145.18)"><tspan
             id="tspan300"
             y="0"
             x="0 4.5599999">15</tspan></text>
</g></g><g
       id="g304"><g
         clip-path="url(#clipPath310)"
         id="g306"><text
           id="text314"
           style="font-variant:normal;font-weight:normal;font-size:9px;font-family:Calibri;-inkscape-font-specification:Calibri;writing-mode:lr-tb;fill:#595959;fill-opacity:1;fill-rule:nonzero;stroke:none"
           transform="matrix(1,0,0,-1,288.58,145.18)"><tspan
             id="tspan312"
             y="0"
             x="0 4.5599999">16</tspan></text>
</g></g><g
       id="g316"><g
         clip-path="url(#clipPath322)"
         id="g318"><text
           id="text326"
           style="font-variant:normal;font-weight:normal;font-size:9px;font-family:Calibri;-inkscape-font-specification:Calibri;writing-mode:lr-tb;fill:#595959;fill-opacity:1;fill-rule:nonzero;stroke:none"
           transform="matrix(1,0,0,-1,301.39,145.18)"><tspan
             id="tspan324"
             y="0"
             x="0 4.5599999">17</tspan></text>
</g></g><g
       id="g328"><g
         clip-path="url(#clipPath334)"
         id="g330"><text
           id="text338"
           style="font-variant:normal;font-weight:normal;font-size:9px;font-family:Calibri;-inkscape-font-specification:Calibri;writing-mode:lr-tb;fill:#595959;fill-opacity:1;fill-rule:nonzero;stroke:none"
           transform="matrix(1,0,0,-1,314.18,145.18)"><tspan
             id="tspan336"
             y="0"
             x="0 4.5599999">18</tspan></text>
</g></g><g
       id="g340"><g
         clip-path="url(#clipPath346)"
         id="g342"><text
           id="text350"
           style="font-variant:normal;font-weight:normal;font-size:9px;font-family:Calibri;-inkscape-font-specification:Calibri;writing-mode:lr-tb;fill:#595959;fill-opacity:1;fill-rule:nonzero;stroke:none"
           transform="matrix(1,0,0,-1,326.98,145.18)"><tspan
             id="tspan348"
             y="0"
             x="0 4.5599999">19</tspan></text>
</g></g><g
       id="g352"><g
         clip-path="url(#clipPath358)"
         id="g354"><text
           id="text362"
           style="font-variant:normal;font-weight:normal;font-size:9px;font-family:Calibri;-inkscape-font-specification:Calibri;writing-mode:lr-tb;fill:#595959;fill-opacity:1;fill-rule:nonzero;stroke:none"
           transform="matrix(1,0,0,-1,339.77,145.18)"><tspan
             id="tspan360"
             y="0"
             x="0 4.5599999">20</tspan></text>
</g></g><g
       id="g364"><g
         clip-path="url(#clipPath370)"
         id="g366"><text
           id="text374"
           style="font-variant:normal;font-weight:normal;font-size:9px;font-family:Calibri;-inkscape-font-specification:Calibri;writing-mode:lr-tb;fill:#595959;fill-opacity:1;fill-rule:nonzero;stroke:none"
           transform="matrix(1,0,0,-1,352.56,145.18)"><tspan
             id="tspan372"
             y="0"
             x="0 4.5599999">21</tspan></text>
</g></g><g
       id="g376"><g
         clip-path="url(#clipPath382)"
         id="g378"><text
           id="text386"
           style="font-variant:normal;font-weight:normal;font-size:9px;font-family:Calibri;-inkscape-font-specification:Calibri;writing-mode:lr-tb;fill:#595959;fill-opacity:1;fill-rule:nonzero;stroke:none"
           transform="matrix(1,0,0,-1,365.35,145.18)"><tspan
             id="tspan384"
             y="0"
             x="0 4.5599999">22</tspan></text>
</g></g><g
       id="g388"><g
         clip-path="url(#clipPath394)"
         id="g390"><text
           id="text398"
           style="font-variant:normal;font-weight:normal;font-size:9px;font-family:Calibri;-inkscape-font-specification:Calibri;writing-mode:lr-tb;fill:#595959;fill-opacity:1;fill-rule:nonzero;stroke:none"
           transform="matrix(1,0,0,-1,378.14,145.18)"><tspan
             id="tspan396"
             y="0"
             x="0 4.5599999">23</tspan></text>
</g></g><g
       id="g400"><g
         clip-path="url(#clipPath406)"
         id="g402"><text
           id="text410"
           style="font-variant:normal;font-weight:normal;font-size:9px;font-family:Calibri;-inkscape-font-specification:Calibri;writing-mode:lr-tb;fill:#595959;fill-opacity:1;fill-rule:nonzero;stroke:none"
           transform="matrix(1,0,0,-1,390.94,145.18)"><tspan
             id="tspan408"
             y="0"
             x="0 4.5599999">24</tspan></text>
</g></g><g
       id="g412"><g
         clip-path="url(#clipPath418)"
         id="g414"><text
           id="text422"
           style="font-variant:normal;font-weight:normal;font-size:9px;font-family:Calibri;-inkscape-font-specification:Calibri;writing-mode:lr-tb;fill:#595959;fill-opacity:1;fill-rule:nonzero;stroke:none"
           transform="matrix(1,0,0,-1,403.73,145.18)"><tspan
             id="tspan420"
             y="0"
             x="0 4.5599999">25</tspan></text>
</g></g><g
       id="g424"><g
         clip-path="url(#clipPath430)"
         id="g426"><text
           id="text434"
           style="font-variant:normal;font-weight:normal;font-size:9px;font-family:Calibri;-inkscape-font-specification:Calibri;writing-mode:lr-tb;fill:#595959;fill-opacity:1;fill-rule:nonzero;stroke:none"
           transform="matrix(1,0,0,-1,416.52,145.18)"><tspan
             id="tspan432"
             y="0"
             x="0 4.5599999">26</tspan></text>
</g></g><g
       id="g436"><g
         clip-path="url(#clipPath442)"
         id="g438"><text
           id="text446"
           style="font-variant:normal;font-weight:normal;font-size:9px;font-family:Calibri;-inkscape-font-specification:Calibri;writing-mode:lr-tb;fill:#595959;fill-opacity:1;fill-rule:nonzero;stroke:none"
           transform="matrix(1,0,0,-1,429.34,145.18)"><tspan
             id="tspan444"
             y="0"
             x="0 4.5599999">27</tspan></text>
</g></g><g
       id="g448"><g
         clip-path="url(#clipPath454)"
         id="g450"><text
           id="text458"
           style="font-variant:normal;font-weight:normal;font-size:9px;font-family:Calibri;-inkscape-font-specification:Calibri;writing-mode:lr-tb;fill:#595959;fill-opacity:1;fill-rule:nonzero;stroke:none"
           transform="matrix(1,0,0,-1,442.13,145.18)"><tspan
             id="tspan456"
             y="0"
             x="0 4.5599999">28</tspan></text>
</g></g><g
       id="g460"><g
         clip-path="url(#clipPath466)"
         id="g462"><text
           id="text470"
           style="font-variant:normal;font-weight:normal;font-size:9px;font-family:Calibri;-inkscape-font-specification:Calibri;writing-mode:lr-tb;fill:#595959;fill-opacity:1;fill-rule:nonzero;stroke:none"
           transform="matrix(1,0,0,-1,454.92,145.18)"><tspan
             id="tspan468"
             y="0"
             x="0 4.5599999">29</tspan></text>
</g></g><g
       id="g472"><g
         clip-path="url(#clipPath478)"
         id="g474"><text
           id="text482"
           style="font-variant:normal;font-weight:normal;font-size:9px;font-family:Calibri;-inkscape-font-specification:Calibri;writing-mode:lr-tb;fill:#595959;fill-opacity:1;fill-rule:nonzero;stroke:none"
           transform="matrix(1,0,0,-1,467.71,145.18)"><tspan
             id="tspan480"
             y="0"
             x="0 4.5599999">30</tspan></text>
</g></g><g
       id="g484"><g
         clip-path="url(#clipPath490)"
         id="g486"><text
           id="text494"
           style="font-variant:normal;font-weight:normal;font-size:9px;font-family:Calibri;-inkscape-font-specification:Calibri;writing-mode:lr-tb;fill:#595959;fill-opacity:1;fill-rule:nonzero;stroke:none"
           transform="matrix(1,0,0,-1,480.5,145.18)"><tspan
             id="tspan492"
             y="0"
             x="0 4.5599999">31</tspan></text>
</g></g><g
       id="g496"><g
         clip-path="url(#clipPath502)"
         id="g498"><text
           id="text506"
           style="font-variant:normal;font-weight:normal;font-size:9px;font-family:Calibri;-inkscape-font-specification:Calibri;writing-mode:lr-tb;fill:#595959;fill-opacity:1;fill-rule:nonzero;stroke:none"
           transform="matrix(1,0,0,-1,493.3,145.18)"><tspan
             id="tspan504"
             y="0"
             x="0 4.5599999">32</tspan></text>
</g></g><g
       id="g508"><g
         clip-path="url(#clipPath514)"
         id="g510"><text
           id="text518"
           style="font-variant:normal;font-weight:normal;font-size:9px;font-family:Calibri;-inkscape-font-specification:Calibri;writing-mode:lr-tb;fill:#595959;fill-opacity:1;fill-rule:nonzero;stroke:none"
           transform="matrix(1,0,0,-1,506.09,145.18)"><tspan
             id="tspan516"
             y="0"
             x="0 4.5599999">33</tspan></text>
</g></g><g
       id="g520"><g
         clip-path="url(#clipPath526)"
         id="g522"><text
           id="text530"
           style="font-variant:normal;font-weight:normal;font-size:9px;font-family:Calibri;-inkscape-font-specification:Calibri;writing-mode:lr-tb;fill:#595959;fill-opacity:1;fill-rule:nonzero;stroke:none"
           transform="matrix(1,0,0,-1,518.88,145.18)"><tspan
             id="tspan528"
             y="0"
             x="0 4.5599999">34</tspan></text>
</g></g><g
       id="g532"><g
         clip-path="url(#clipPath538)"
         id="g534"><text
           id="text542"
           style="font-variant:normal;font-weight:normal;font-size:9px;font-family:Calibri;-inkscape-font-specification:Calibri;writing-mode:lr-tb;fill:#595959;fill-opacity:1;fill-rule:nonzero;stroke:none"
           transform="matrix(1,0,0,-1,531.67,145.18)"><tspan
             id="tspan540"
             y="0"
             x="0 4.5599999">35</tspan></text>
</g></g><g
       id="g544"><g
         clip-path="url(#clipPath550)"
         id="g546"><text
           id="text554"
           style="font-variant:normal;font-weight:normal;font-size:9px;font-family:Calibri;-inkscape-font-specification:Calibri;writing-mode:lr-tb;fill:#595959;fill-opacity:1;fill-rule:nonzero;stroke:none"
           transform="matrix(1,0,0,-1,544.49,145.18)"><tspan
             id="tspan552"
             y="0"
             x="0 4.5599999">36</tspan></text>
</g></g><g
       id="g556"><g
         clip-path="url(#clipPath562)"
         id="g558"><text
           id="text566"
           style="font-variant:normal;font-weight:normal;font-size:9px;font-family:Calibri;-inkscape-font-specification:Calibri;writing-mode:lr-tb;fill:#595959;fill-opacity:1;fill-rule:nonzero;stroke:none"
           transform="matrix(1,0,0,-1,557.28,145.18)"><tspan
             id="tspan564"
             y="0"
             x="0 4.5599999">37</tspan></text>
</g></g><g
       id="g568"><g
         clip-path="url(#clipPath574)"
         id="g570"><text
           id="text578"
           style="font-variant:normal;font-weight:normal;font-size:9px;font-family:Calibri;-inkscape-font-specification:Calibri;writing-mode:lr-tb;fill:#595959;fill-opacity:1;fill-rule:nonzero;stroke:none"
           transform="matrix(1,0,0,-1,570.07,145.18)"><tspan
             id="tspan576"
             y="0"
             x="0 4.5599999">38</tspan></text>
</g></g><g
       id="g580"><g
         clip-path="url(#clipPath586)"
         id="g582"><text
           id="text590"
           style="font-variant:normal;font-weight:normal;font-size:9px;font-family:Calibri;-inkscape-font-specification:Calibri;writing-mode:lr-tb;fill:#595959;fill-opacity:1;fill-rule:nonzero;stroke:none"
           transform="matrix(1,0,0,-1,582.86,145.18)"><tspan
             id="tspan588"
             y="0"
             x="0 4.5599999">39</tspan></text>
</g></g><g
       id="g592"><g
         clip-path="url(#clipPath598)"
         id="g594"><text
           id="text602"
           style="font-variant:normal;font-weight:normal;font-size:9px;font-family:Calibri;-inkscape-font-specification:Calibri;writing-mode:lr-tb;fill:#595959;fill-opacity:1;fill-rule:nonzero;stroke:none"
           transform="matrix(1,0,0,-1,595.66,145.18)"><tspan
             id="tspan600"
             y="0"
             x="0 4.5599999">40</tspan></text>
</g></g><g
       id="g604"><g
         clip-path="url(#clipPath610)"
         id="g606"><text
           id="text614"
           style="font-variant:normal;font-weight:normal;font-size:9px;font-family:Calibri;-inkscape-font-specification:Calibri;writing-mode:lr-tb;fill:#595959;fill-opacity:1;fill-rule:nonzero;stroke:none"
           transform="matrix(1,0,0,-1,608.45,145.18)"><tspan
             id="tspan612"
             y="0"
             x="0 4.5599999">41</tspan></text>
</g></g><g
       id="g616"><g
         clip-path="url(#clipPath622)"
         id="g618"><text
           id="text626"
           style="font-variant:normal;font-weight:normal;font-size:9px;font-family:Calibri;-inkscape-font-specification:Calibri;writing-mode:lr-tb;fill:#595959;fill-opacity:1;fill-rule:nonzero;stroke:none"
           transform="matrix(1,0,0,-1,621.24,145.18)"><tspan
             id="tspan624"
             y="0"
             x="0 4.5599999">42</tspan></text>
</g></g><g
       id="g628"><g
         clip-path="url(#clipPath634)"
         id="g630"><text
           id="text638"
           style="font-variant:normal;font-weight:normal;font-size:9px;font-family:Calibri;-inkscape-font-specification:Calibri;writing-mode:lr-tb;fill:#595959;fill-opacity:1;fill-rule:nonzero;stroke:none"
           transform="matrix(1,0,0,-1,634.03,145.18)"><tspan
             id="tspan636"
             y="0"
             x="0 4.5599999">43</tspan></text>
</g></g><g
       id="g640"><g
         clip-path="url(#clipPath646)"
         id="g642"><text
           id="text650"
           style="font-variant:normal;font-weight:normal;font-size:9px;font-family:Calibri;-inkscape-font-specification:Calibri;writing-mode:lr-tb;fill:#595959;fill-opacity:1;fill-rule:nonzero;stroke:none"
           transform="matrix(1,0,0,-1,646.82,145.18)"><tspan
             id="tspan648"
             y="0"
             x="0 4.5599999">44</tspan></text>
</g></g><g
       id="g652"><g
         clip-path="url(#clipPath658)"
         id="g654"><text
           id="text662"
           style="font-variant:normal;font-weight:normal;font-size:9px;font-family:Calibri;-inkscape-font-specification:Calibri;writing-mode:lr-tb;fill:#595959;fill-opacity:1;fill-rule:nonzero;stroke:none"
           transform="matrix(1,0,0,-1,659.64,145.18)"><tspan
             id="tspan660"
             y="0"
             x="0 4.5599999">45</tspan></text>
</g></g><g
       id="g664"><g
         clip-path="url(#clipPath670)"
         id="g666"><text
           id="text674"
           style="font-variant:normal;font-weight:normal;font-size:9px;font-family:Calibri;-inkscape-font-specification:Calibri;writing-mode:lr-tb;fill:#595959;fill-opacity:1;fill-rule:nonzero;stroke:none"
           transform="matrix(1,0,0,-1,672.43,145.18)"><tspan
             id="tspan672"
             y="0"
             x="0 4.5599999">46</tspan></text>
</g></g><g
       id="g676"><g
         clip-path="url(#clipPath682)"
         id="g678"><text
           id="text686"
           style="font-variant:normal;font-weight:normal;font-size:9px;font-family:Calibri;-inkscape-font-specification:Calibri;writing-mode:lr-tb;fill:#595959;fill-opacity:1;fill-rule:nonzero;stroke:none"
           transform="matrix(1,0,0,-1,685.22,145.18)"><tspan
             id="tspan684"
             y="0"
             x="0 4.5599999">47</tspan></text>
</g></g><g
       id="g688"><g
         clip-path="url(#clipPath694)"
         id="g690"><text
           id="text698"
           style="font-variant:normal;font-weight:normal;font-size:9px;font-family:Calibri;-inkscape-font-specification:Calibri;writing-mode:lr-tb;fill:#595959;fill-opacity:1;fill-rule:nonzero;stroke:none"
           transform="matrix(1,0,0,-1,698.02,145.18)"><tspan
             id="tspan696"
             y="0"
             x="0 4.5599999">48</tspan></text>
</g></g><g
       id="g700"><g
         clip-path="url(#clipPath706)"
         id="g702"><text
           id="text710"
           style="font-variant:normal;font-weight:normal;font-size:9px;font-family:Calibri;-inkscape-font-specification:Calibri;writing-mode:lr-tb;fill:#595959;fill-opacity:1;fill-rule:nonzero;stroke:none"
           transform="matrix(1,0,0,-1,710.81,145.18)"><tspan
             id="tspan708"
             y="0"
             x="0 4.5599999">49</tspan></text>
</g></g><g
       id="g712"><g
         clip-path="url(#clipPath718)"
         id="g714"><text
           id="text722"
           style="font-variant:normal;font-weight:normal;font-size:9px;font-family:Calibri;-inkscape-font-specification:Calibri;writing-mode:lr-tb;fill:#595959;fill-opacity:1;fill-rule:nonzero;stroke:none"
           transform="matrix(1,0,0,-1,723.6,145.18)"><tspan
             id="tspan720"
             y="0"
             x="0 4.5599999">50</tspan></text>
</g></g><g
       id="g724"><g
         clip-path="url(#clipPath730)"
         id="g726"><text
           id="text734"
           style="font-variant:normal;font-weight:normal;font-size:9px;font-family:Calibri;-inkscape-font-specification:Calibri;writing-mode:lr-tb;fill:#595959;fill-opacity:1;fill-rule:nonzero;stroke:none"
           transform="matrix(1,0,0,-1,736.39,145.18)"><tspan
             id="tspan732"
             y="0"
             x="0 4.5599999">51</tspan></text>
</g></g><g
       id="g736"><g
         clip-path="url(#clipPath742)"
         id="g738"><text
           id="text746"
           style="font-variant:normal;font-weight:normal;font-size:9px;font-family:Calibri;-inkscape-font-specification:Calibri;writing-mode:lr-tb;fill:#595959;fill-opacity:1;fill-rule:nonzero;stroke:none"
           transform="matrix(1,0,0,-1,749.18,145.18)"><tspan
             id="tspan744"
             y="0"
             x="0 4.5599999">52</tspan></text>
</g></g><g
       id="g748"><g
         clip-path="url(#clipPath754)"
         id="g750"><text
           id="text758"
           style="font-variant:normal;font-weight:normal;font-size:18px;font-family:Calibri;-inkscape-font-specification:Calibri;writing-mode:lr-tb;fill:#595959;fill-opacity:1;fill-rule:nonzero;stroke:none"
           transform="matrix(1,0,0,-1,185.78,499.8)"><tspan
             id="tspan756"
             y="0"
             x="0 8.4060001 14.166 23.129999 27.27 34.307999 43.307999 50.346001 58.535999 64.421997 72.828003 80.963997 84.942001 94.769997 97.650002 106.416">Ytelseskrav R.YK</tspan></text>
</g></g><g
       id="g760"><g
         clip-path="url(#clipPath766)"
         id="g762"><text
           id="text770"
           style="font-variant:normal;font-weight:normal;font-size:18px;font-family:Calibri;-inkscape-font-specification:Calibri;writing-mode:lr-tb;fill:#595959;fill-opacity:1;fill-rule:nonzero;stroke:none"
           transform="matrix(1,0,0,-1,301.58,499.8)"><tspan
             id="tspan768"
             y="0"
             x="0">-</tspan></text>
</g></g><g
       id="g772"><g
         clip-path="url(#clipPath778)"
         id="g774"><text
           id="text782"
           style="font-variant:normal;font-weight:normal;font-size:18px;font-family:Calibri;-inkscape-font-specification:Calibri;writing-mode:lr-tb;fill:#595959;fill-opacity:1;fill-rule:nonzero;stroke:none"
           transform="matrix(1,0,0,-1,307.1,499.8)"><tspan
             id="tspan780"
             y="0"
             x="0 9.1260004 13.95 18.018 27.233999 39.150002 48.942001 53.136002 60.695999 70.181999 79.542 85.571999 91.547997 101.034 105.102 109.188 113.256 120.33 128.12399 136.746 140.886 145.026 153.89999 159.66 168.282 177.73199 181.87199 190.836 196.866 205.83 212.922 216.882 220.968 230.418 239.90401 248.868 258.37201 262.332 271.45801 280.58401 284.65201 299.034 303.17401 312.62399 322.07401 327.85199 333.612 342.57599">1: POB kontroll skal etableres innen 20 minutter</tspan></text>
</g></g><path
       id="path784"
       style="fill:none;stroke:#4472c4;stroke-width:2.25;stroke-linecap:round;stroke-linejoin:round;stroke-miterlimit:10;stroke-dasharray:none;stroke-opacity:1"
       d="m 347.14,127.86 h 19.2" /><g
       id="g786"><g
         clip-path="url(#clipPath792)"
         id="g788"><text
           id="text796"
           style="font-variant:normal;font-weight:normal;font-size:9px;font-family:Calibri;-inkscape-font-specification:Calibri;writing-mode:lr-tb;fill:#595959;fill-opacity:1;fill-rule:nonzero;stroke:none"
           transform="matrix(1,0,0,-1,368.4,125.23)"><tspan
             id="tspan794"
             y="0"
             x="0 4.0770001 8.2709999 10.314 13.059 16.073999 18.108">Skift 1</tspan></text>
</g></g><path
       id="path798"
       style="fill:none;stroke:#ed7d31;stroke-width:2.25;stroke-linecap:round;stroke-linejoin:round;stroke-miterlimit:10;stroke-dasharray:none;stroke-opacity:1"
       d="m 400.78,127.86 h 19.2" /><g
       id="g800"><g
         clip-path="url(#clipPath806)"
         id="g802"><text
           id="text810"
           style="font-variant:normal;font-weight:normal;font-size:9px;font-family:Calibri;-inkscape-font-specification:Calibri;writing-mode:lr-tb;fill:#595959;fill-opacity:1;fill-rule:nonzero;stroke:none"
           transform="matrix(1,0,0,-1,422.06,125.23)"><tspan
             id="tspan808"
             y="0"
             x="0 4.0770001 8.2709999 10.314 13.059 16.073999 18.108">Skift 2</tspan></text>
</g></g><path
       id="path812"
       style="fill:none;stroke:#a5a5a5;stroke-width:2.25;stroke-linecap:round;stroke-linejoin:round;stroke-miterlimit:10;stroke-dasharray:none;stroke-opacity:1"
       d="m 454.42,127.86 h 19.2" /><g
       id="g814"><g
         clip-path="url(#clipPath820)"
         id="g816"><text
           id="text824"
           style="font-variant:normal;font-weight:normal;font-size:9px;font-family:Calibri;-inkscape-font-specification:Calibri;writing-mode:lr-tb;fill:#595959;fill-opacity:1;fill-rule:nonzero;stroke:none"
           transform="matrix(1,0,0,-1,475.7,125.23)"><tspan
             id="tspan822"
             y="0"
             x="0 4.0770001 8.2709999 10.314 13.059 16.073999 18.108">Skift 3</tspan></text>
</g></g><g
       id="g826"><g
         clip-path="url(#clipPath832)"
         id="g828"><path
           id="path834"
           style="fill:none;stroke:#d9d9d9;stroke-width:0.75;stroke-linecap:butt;stroke-linejoin:round;stroke-miterlimit:10;stroke-dasharray:none;stroke-opacity:1"
           d="m 70.85,113.42 h 700.2 V 524.47 H 70.85 Z" /></g></g></g></svg>