<svg id="Layer_1" data-name="Layer 1" xmlns="http://www.w3.org/2000/svg" viewBox="0 0 517.3 494.91"><defs><style>.cls-1{fill:#ff6464;}.cls-2{fill:#fff;}.cls-3{opacity:0.1;}</style></defs><title>red_warning</title><path class="cls-1" d="M487.75,484.53H29.55a17.35,17.35,0,0,1-3-.25,17.91,17.91,0,0,1-12.86-25.94l4.65-8.89,111-212.37L242.78,20a17.91,17.91,0,0,1,30.34-2.26,17.55,17.55,0,0,1,1.4,2.26L388,237.08,499,449.45l4.65,8.89A17.9,17.9,0,0,1,487.75,484.53Z"/><rect class="cls-2" x="233.15" y="160.45" width="51" height="209" rx="24.98" ry="24.98"/><circle class="cls-2" cx="258.65" cy="405.45" r="25"/><g class="cls-3"><path d="M503.61,458.34,499,449.45H45L273.12,17.72A17.91,17.91,0,0,0,242.78,20L129.32,237.08,13.69,458.34a17.91,17.91,0,0,0,12.86,25.94,17.35,17.35,0,0,0,3,.25h458.2A17.9,17.9,0,0,0,503.61,458.34Z"/></g></svg>